<svg width="68" height="68" viewBox="0 0 68 68" fill="none" xmlns="http://www.w3.org/2000/svg">
<g id="Bold / Nature, Travel / Fire">
<path id="Vector" d="M36.3584 61.7705C45.2152 59.9952 56.6667 53.6239 56.6667 37.1484C56.6667 22.1556 45.6923 12.1719 37.801 7.58448C36.05 6.56654 34 7.90525 34 9.93068V15.1114C34 19.1966 32.2824 26.6536 27.5097 29.7552C25.0731 31.3387 22.4415 28.9686 22.1453 26.0777L21.9022 23.7039C21.6195 20.9442 18.8088 19.2689 16.6032 20.9514C12.6408 23.9741 8.5 29.2673 8.5 37.1484C8.5 57.2966 23.4852 62.3336 30.9778 62.3336C31.4136 62.3336 31.8716 62.3205 32.3484 62.2931C28.6487 61.9769 22.6667 59.6815 22.6667 52.2587C22.6667 46.4523 26.9027 42.5241 30.1212 40.6148C30.9869 40.1012 32 40.768 32 41.7745V43.4439C32 44.7215 32.4941 46.7186 33.6703 48.0857C35.0013 49.6327 36.9549 48.0121 37.1125 45.9775C37.1622 45.3356 37.8077 44.9266 38.3635 45.2514C40.1806 46.3134 42.5 48.5819 42.5 52.2587C42.5 58.0614 39.3013 60.7307 36.3584 61.7705Z" fill="#0E74BC"/>
</g>
</svg>
