<svg width="68" height="68" viewBox="0 0 68 68" fill="none" xmlns="http://www.w3.org/2000/svg">
<g id="Bold / Hands / Hand Stars">
<path id="Vector" d="M17.7364 60.6004H16.9999C14.3286 60.6004 12.993 60.6004 12.1631 59.7706C11.3333 58.9407 11.3333 57.605 11.3333 54.9338V51.7833C11.3333 50.3141 11.3333 49.5796 11.7106 48.9236C12.0879 48.2676 12.6572 47.9365 13.7957 47.2744C21.2912 42.9149 31.936 40.4609 39.0406 44.6984C39.518 44.9831 39.9473 45.3268 40.3141 45.7389C41.8954 47.515 41.7801 50.1956 39.9577 51.7862C39.5729 52.1221 39.1627 52.3769 38.7496 52.4654C39.0891 52.4261 39.4144 52.3809 39.7249 52.3314C42.3072 51.9195 44.4749 50.5396 46.4593 49.0405L51.5797 45.1726C53.3848 43.809 56.064 43.8087 57.8694 45.1719C59.4948 46.3992 59.9918 48.42 58.9642 50.0671C57.7659 51.9879 56.0775 54.4453 54.4564 55.9468C52.8329 57.4504 50.4159 58.7928 48.4428 59.7452C46.257 60.8002 43.8424 61.4081 41.3863 61.8056C36.405 62.612 31.2135 62.4889 26.2828 61.4731C23.4954 60.8988 20.6005 60.6004 17.7364 60.6004Z" fill="#0E74BC"/>
<g id="Vector_2">
<path d="M30.7737 9.52957C32.2092 6.95436 32.927 5.66675 34.0001 5.66675C35.0732 5.66675 35.791 6.95436 37.2265 9.52957L37.5979 10.1958C38.0058 10.9276 38.2098 11.2935 38.5278 11.5349C38.8458 11.7764 39.2419 11.866 40.0341 12.0452L40.7553 12.2084C43.5429 12.8391 44.9367 13.1545 45.2683 14.2208C45.5999 15.2872 44.6497 16.3984 42.7493 18.6207L42.2576 19.1956C41.7176 19.8271 41.4476 20.1429 41.3261 20.5335C41.2046 20.9241 41.2454 21.3454 41.3271 22.188L41.4014 22.9551C41.6888 25.9201 41.8324 27.4026 40.9642 28.0617C40.0961 28.7207 38.791 28.1198 36.181 26.9181L35.5057 26.6072C34.764 26.2657 34.3932 26.0949 34.0001 26.0949C33.607 26.0949 33.2361 26.2657 32.4944 26.6072L31.8192 26.9181C29.2091 28.1198 27.9041 28.7207 27.0359 28.0617C26.1678 27.4026 26.3114 25.9201 26.5987 22.9551L26.6731 22.188C26.7547 21.3454 26.7955 20.9241 26.6741 20.5335C26.5526 20.1429 26.2826 19.8271 25.7425 19.1956L25.2509 18.6207C23.3504 16.3984 22.4002 15.2872 22.7318 14.2208C23.0634 13.1545 24.4573 12.8391 27.2449 12.2084L27.9661 12.0452C28.7582 11.866 29.1543 11.7764 29.4724 11.5349C29.7904 11.2935 29.9943 10.9276 30.4023 10.1958L30.7737 9.52957Z" fill="#53ADED"/>
<path d="M55.0535 21.7648C55.7713 20.4772 56.1302 19.8334 56.6667 19.8334C57.2033 19.8334 57.5622 20.4772 58.28 21.7648L58.4656 22.0979C58.6696 22.4638 58.7716 22.6468 58.9306 22.7675C59.0896 22.8882 59.2877 22.933 59.6837 23.0226L60.0443 23.1042C61.4382 23.4196 62.1351 23.5773 62.3009 24.1105C62.4667 24.6436 61.9916 25.1992 61.0414 26.3104L60.7955 26.5978C60.5255 26.9136 60.3905 27.0715 60.3298 27.2668C60.269 27.4621 60.2894 27.6727 60.3303 28.094L60.3674 28.4776C60.5111 29.9601 60.5829 30.7013 60.1488 31.0309C59.7147 31.3604 59.0622 31.06 57.7572 30.4591L57.4196 30.3036C57.0487 30.1329 56.8633 30.0475 56.6667 30.0475C56.4702 30.0475 56.2848 30.1329 55.9139 30.3036L55.5763 30.4591C54.2713 31.06 53.6187 31.3604 53.1847 31.0309C52.7506 30.7013 52.8224 29.9601 52.9661 28.4776L53.0032 28.094C53.0441 27.6727 53.0645 27.4621 53.0037 27.2668C52.943 27.0715 52.808 26.9136 52.538 26.5978L52.2921 26.3104C51.3419 25.1992 50.8668 24.6436 51.0326 24.1105C51.1984 23.5773 51.8953 23.4196 53.2892 23.1042L53.6497 23.0226C54.0458 22.933 54.2439 22.8882 54.4029 22.7675C54.5619 22.6468 54.6639 22.4638 54.8678 22.0979L55.0535 21.7648Z" fill="#53ADED"/>
<path d="M9.72021 21.7648C10.438 20.4772 10.7969 19.8334 11.3334 19.8334C11.87 19.8334 12.2289 20.4772 12.9466 21.7648L13.1323 22.0979C13.3363 22.4638 13.4383 22.6468 13.5973 22.7675C13.7563 22.8882 13.9543 22.933 14.3504 23.0226L14.711 23.1042C16.1048 23.4196 16.8017 23.5773 16.9675 24.1105C17.1333 24.6436 16.6582 25.1992 15.708 26.3104L15.4622 26.5978C15.1922 26.9136 15.0572 27.0715 14.9964 27.2668C14.9357 27.4621 14.9561 27.6727 14.9969 28.094L15.0341 28.4776C15.1777 29.9601 15.2496 30.7013 14.8155 31.0309C14.3814 31.3604 13.7289 31.06 12.4239 30.4591L12.0862 30.3036C11.7154 30.1329 11.53 30.0475 11.3334 30.0475C11.1369 30.0475 10.9514 30.1329 10.5806 30.3036L10.243 30.4591C8.93793 31.06 8.28541 31.3604 7.85133 31.0309C7.41725 30.7013 7.48908 29.9601 7.63274 28.4776L7.66991 28.094C7.71073 27.6727 7.73114 27.4621 7.6704 27.2668C7.60967 27.0715 7.47466 26.9136 7.20464 26.5978L6.9588 26.3104C6.00859 25.1992 5.53348 24.6436 5.69929 24.1105C5.86509 23.5773 6.562 23.4196 7.95582 23.1042L8.31642 23.0226C8.7125 22.933 8.91054 22.8882 9.06955 22.7675C9.22856 22.6468 9.33055 22.4638 9.53451 22.0979L9.72021 21.7648Z" fill="#53ADED"/>
</g>
</g>
</svg>
