<svg width="68" height="68" viewBox="0 0 68 68" fill="none" xmlns="http://www.w3.org/2000/svg">
<g id="Bold / Medicine / Jar Of Pills 2">
<g id="Vector">
<path d="M46.3712 45.8405L47.8215 44.3902C50.4164 41.7954 54.7111 41.883 57.4141 44.586C60.1171 47.289 60.2047 51.5837 57.6099 54.1786L56.1594 55.629C56.0373 55.3186 55.881 54.9592 55.6827 54.5604C55.0417 53.2718 53.9647 51.5791 52.1929 49.8073C50.4211 48.0355 48.7284 46.9585 47.4396 46.3173C47.0409 46.119 46.6816 45.9627 46.3712 45.8405Z" fill="#53ADED"/>
<path d="M42.8971 49.3146L41.557 50.6548C38.9621 53.2496 39.0498 57.5444 41.7527 60.2473C44.4557 62.9503 48.7505 63.038 51.3453 60.4431L52.6851 59.1034L52.4026 57.7722L52.3943 57.7404C52.3826 57.697 52.3592 57.6159 52.3206 57.5015C52.2434 57.2728 52.1054 56.9115 51.8774 56.4533C51.4227 55.539 50.6063 54.2311 49.1877 52.8125C47.7691 51.3939 46.4611 50.5774 45.5466 50.1225C45.0883 49.8945 44.7269 49.7564 44.4981 49.6791C44.3837 49.6405 44.3025 49.6171 44.2592 49.6054L44.2272 49.597L42.8971 49.3146Z" fill="#53ADED"/>
</g>
<path id="Vector_2" d="M17.2157 7.41581C17 7.9365 17 8.59658 17 9.91675C17 11.2369 17 11.897 17.2157 12.4177C17.5032 13.1119 18.0548 13.6635 18.7491 13.9511C19.2697 14.1667 19.9298 14.1667 21.25 14.1667H25.5H42.5H46.75C48.0702 14.1667 48.7303 14.1667 49.2509 13.9511C49.9452 13.6635 50.4968 13.1119 50.7843 12.4177C51 11.897 51 11.2369 51 9.91675C51 8.59658 51 7.9365 50.7843 7.41581C50.4968 6.72157 49.9452 6.16999 49.2509 5.88242C48.7303 5.66675 48.0702 5.66675 46.75 5.66675H21.25C19.9298 5.66675 19.2697 5.66675 18.7491 5.88242C18.0548 6.16999 17.5032 6.72157 17.2157 7.41581Z" fill="#53ADED"/>
<g id="Vector_3">
<path d="M21.9582 17L15.5867 22.0971C14.1921 23.2127 13.0999 24.6258 12.3715 26.2082H55.6468C54.9274 24.6292 53.8464 23.2168 52.4642 22.0979L46.1668 17H21.9582Z" fill="#0E74BC"/>
<path fill-rule="evenodd" clip-rule="evenodd" d="M56.6666 30.9066C56.6666 30.7568 56.6636 30.6072 56.6577 30.4582H11.3438C11.3368 30.6206 11.3333 30.7835 11.3333 30.9469V48.8748H37.4962C37.8114 48.4481 38.1632 48.0384 38.5522 47.6494L44.8167 41.3849C48.0554 38.1462 52.7334 37.4835 56.6666 39.087V30.9066ZM36.1249 37.5415V33.9998C36.1249 32.8262 35.1735 31.8748 33.9999 31.8748C32.8263 31.8748 31.8749 32.8262 31.8749 33.9998V37.5415H28.3333C27.1596 37.5415 26.2083 38.4929 26.2083 39.6665C26.2083 40.8401 27.1596 41.7915 28.3333 41.7915H31.8749V45.3332C31.8749 46.5068 32.8263 47.4582 33.9999 47.4582C35.1735 47.4582 36.1249 46.5068 36.1249 45.3332V41.7915H39.6666C40.8402 41.7915 41.7916 40.8401 41.7916 39.6665C41.7916 38.4929 40.8402 37.5415 39.6666 37.5415H36.1249Z" fill="#0E74BC"/>
<path d="M35.623 53.1248C34.9954 56.3016 35.8094 59.7045 37.923 62.3332H25.3779C23.7597 62.3332 22.9507 62.3332 22.1837 62.2279C19.9087 61.9156 17.7822 60.9196 16.0858 59.3718C15.5139 58.85 14.996 58.2284 13.9601 56.9853C13.0055 55.8398 12.2938 54.5265 11.8537 53.1248H35.623Z" fill="#0E74BC"/>
</g>
</g>
</svg>
