<svg width="68" height="68" viewBox="0 0 68 68" fill="none" xmlns="http://www.w3.org/2000/svg">
<g id="wellness 1" clip-path="url(#clip0_306_1113)">
<g id="Group">
<path id="Vector" d="M41.0976 49.6412L37.6152 39.1929L29.6465 55.1304L25.1601 41.6725L22.8717 43.9608H8.43896C10.065 54.1122 17.7862 67.9999 28.0235 67.9999C30.0157 67.9999 32.0212 67.4474 34.0001 66.3557C35.979 67.4474 37.9844 67.9999 39.9766 67.9999C50.2121 67.9999 57.9342 54.1183 59.5611 43.9608H46.7779L41.0976 49.6412Z" fill="#53ADED"/>
<path id="Vector_2" d="M26.9025 34.2962L30.3848 44.7445L38.3536 28.807L42.84 42.2649L45.1284 39.9766H59.8984C59.8984 28.9916 50.9615 20.0547 39.9766 20.0547C38.6577 20.0547 37.3389 20.2008 35.9922 20.4983V15.9375H37.9844C45.6742 15.9375 51.9297 9.68203 51.9297 1.99219V0H45.9531C41.1798 0 36.9591 2.41055 34.4462 6.0775C34.4461 6.07777 34.4459 6.07816 34.4456 6.07843C32.3906 2.45238 28.4961 0 24.0391 0V3.98438C28.433 3.98438 32.0078 7.55916 32.0078 11.9531V20.4983C30.6611 20.2008 29.3423 20.0547 28.0234 20.0547C17.0385 20.0547 8.10156 28.9916 8.10156 39.9766H21.2221L26.9025 34.2962Z" fill="#0E74BC"/>
</g>
</g>
<defs>
<clipPath id="clip0_306_1113">
<rect width="68" height="68" fill="white"/>
</clipPath>
</defs>
</svg>
