<svg width="33" height="32" viewBox="0 0 33 32" fill="none" xmlns="http://www.w3.org/2000/svg">
<g id="Duotone/Notebook">
<path id="Vector" opacity="0.2" d="M10.5 27H6.5C6.23478 27 5.98043 26.8946 5.79289 26.7071C5.60536 26.5196 5.5 26.2652 5.5 26V6C5.5 5.73478 5.60536 5.48043 5.79289 5.29289C5.98043 5.10536 6.23478 5 6.5 5H10.5V27Z" fill="#ED1B24"/>
<path id="Vector_2" d="M14.5 14H22.5" stroke="#ED1B24" stroke-width="2" stroke-linecap="round" stroke-linejoin="round"/>
<path id="Vector_3" d="M14.5 18H22.5" stroke="#ED1B24" stroke-width="2" stroke-linecap="round" stroke-linejoin="round"/>
<path id="Vector_4" d="M26.5 5H6.5C5.94772 5 5.5 5.44772 5.5 6V26C5.5 26.5523 5.94772 27 6.5 27H26.5C27.0523 27 27.5 26.5523 27.5 26V6C27.5 5.44772 27.0523 5 26.5 5Z" stroke="#ED1B24" stroke-width="2" stroke-linecap="round" stroke-linejoin="round"/>
<path id="Vector_5" d="M10.5 5V27" stroke="#ED1B24" stroke-width="2" stroke-linecap="round" stroke-linejoin="round"/>
</g>
</svg>
