<svg width="33" height="32" viewBox="0 0 33 32" fill="none" xmlns="http://www.w3.org/2000/svg">
<g id="Duotone/Package">
<path id="Vector" opacity="0.2" d="M4.6375 9.32495C4.54693 9.48052 4.49946 9.65743 4.5 9.83745V22.1625C4.50096 22.3405 4.54884 22.5151 4.63882 22.6687C4.7288 22.8224 4.85769 22.9495 5.0125 23.0375L16.0125 29.225C16.1608 29.3097 16.3292 29.3529 16.5 29.35L16.6125 16L4.6375 9.32495Z" fill="#0E74BC"/>
<path id="Vector_2" d="M28.5 22.1624V9.83741C28.499 9.65938 28.4512 9.48475 28.3612 9.33113C28.2712 9.17751 28.1423 9.05033 27.9875 8.96241L16.9875 2.77491C16.8393 2.68934 16.6711 2.64429 16.5 2.64429C16.3289 2.64429 16.1607 2.68934 16.0125 2.77491L5.0125 8.96241C4.85769 9.05033 4.72879 9.17751 4.63882 9.33113C4.54884 9.48475 4.50096 9.65938 4.5 9.83741V22.1624C4.50096 22.3404 4.54884 22.5151 4.63882 22.6687C4.72879 22.8223 4.85769 22.9495 5.0125 23.0374L16.0125 29.2249C16.1607 29.3105 16.3289 29.3555 16.5 29.3555C16.6711 29.3555 16.8393 29.3105 16.9875 29.2249L27.9875 23.0374C28.1423 22.9495 28.2712 22.8223 28.3612 22.6687C28.4512 22.5151 28.499 22.3404 28.5 22.1624V22.1624Z" stroke="#0E74BC" stroke-width="2" stroke-linecap="round" stroke-linejoin="round"/>
<path id="Vector_3" d="M22.625 19.0625V12.5625L10.5 5.875" stroke="#0E74BC" stroke-width="2" stroke-linecap="round" stroke-linejoin="round"/>
<path id="Vector_4" d="M28.3617 9.32495L16.6117 16L4.63672 9.32495" stroke="#0E74BC" stroke-width="2" stroke-linecap="round" stroke-linejoin="round"/>
<path id="Vector_5" d="M16.6125 16L16.5 29.35" stroke="#0E74BC" stroke-width="2" stroke-linecap="round" stroke-linejoin="round"/>
</g>
</svg>
