<svg width="25" height="24" viewBox="0 0 25 24" fill="none" xmlns="http://www.w3.org/2000/svg">
<g id="Outline / Essentional, UI / Add Circle">
<g id="Vector">
<path d="M13.25 9C13.25 8.58579 12.9142 8.25 12.5 8.25C12.0858 8.25 11.75 8.58579 11.75 9L11.75 11.25H9.5C9.08579 11.25 8.75 11.5858 8.75 12C8.75 12.4142 9.08579 12.75 9.5 12.75H11.75V15C11.75 15.4142 12.0858 15.75 12.5 15.75C12.9142 15.75 13.25 15.4142 13.25 15L13.25 12.75H15.5C15.9142 12.75 16.25 12.4142 16.25 12C16.25 11.5858 15.9142 11.25 15.5 11.25H13.25V9Z" fill="#0E74BC"/>
<path fill-rule="evenodd" clip-rule="evenodd" d="M12.5 1.25C6.56294 1.25 1.75 6.06294 1.75 12C1.75 17.9371 6.56294 22.75 12.5 22.75C18.4371 22.75 23.25 17.9371 23.25 12C23.25 6.06294 18.4371 1.25 12.5 1.25ZM3.25 12C3.25 6.89137 7.39137 2.75 12.5 2.75C17.6086 2.75 21.75 6.89137 21.75 12C21.75 17.1086 17.6086 21.25 12.5 21.25C7.39137 21.25 3.25 17.1086 3.25 12Z" fill="#0E74BC"/>
</g>
</g>
</svg>
