<svg width="65" height="64" viewBox="0 0 65 64" fill="none" xmlns="http://www.w3.org/2000/svg">
<g id="Outline / Call / Phone Calling ">
<path id="Vector" fill-rule="evenodd" clip-rule="evenodd" d="M13.2471 8.24572C16.5169 4.80322 21.9255 5.44819 24.6284 9.27107L27.9911 14.027C30.153 17.0848 29.9704 21.3359 27.3902 24.0524L26.7373 24.7398C26.7354 24.7446 26.7335 24.7497 26.7316 24.7553C26.697 24.8522 26.6098 25.161 26.6957 25.747C26.8737 26.9618 27.8114 29.4303 31.6185 33.4384C35.4375 37.4592 37.754 38.4068 38.8274 38.5811C39.2906 38.6563 39.5328 38.591 39.61 38.5638L40.6997 37.4166C43.0297 34.9634 46.6627 34.4802 49.5919 36.1662L54.6866 39.0986C59.0411 41.605 60.0546 47.7362 56.5746 51.3999L52.7865 55.3881C51.6042 56.6328 49.992 57.6953 47.9999 57.892C43.1362 58.372 31.8692 57.7467 20.0575 45.3113C9.03577 33.7074 6.94196 23.6143 6.67728 18.6831L8.45355 18.5877L6.67728 18.6831C6.5465 16.2466 7.63258 14.1568 9.06152 12.6524L13.2471 8.24572ZM21.3623 11.5803C19.9961 9.64792 17.5416 9.53262 16.1474 11.0005L11.9617 15.4071C11.078 16.3375 10.6144 17.4039 10.6715 18.4687C10.8876 22.4949 12.6214 31.6743 22.9578 42.5565C33.7956 53.9667 43.7803 54.289 47.607 53.9113C48.3636 53.8366 49.1421 53.4168 49.8863 52.6334L53.6744 48.6452C55.3085 46.9247 54.8801 43.8253 52.6912 42.5654L47.5965 39.6329C46.2293 38.846 44.6278 39.0892 43.5999 40.1713L42.3854 41.45L40.9796 40.1147C42.3854 41.45 42.3835 41.4519 42.3817 41.4539L42.3779 41.4578L42.37 41.466L42.3531 41.4832L42.3148 41.5209C42.2873 41.5475 42.2557 41.5768 42.2198 41.6082C42.1482 41.6711 42.0595 41.7427 41.9529 41.8183C41.7393 41.9698 41.4547 42.1365 41.0949 42.2784C40.3589 42.5687 39.387 42.7244 38.1862 42.5294C35.8462 42.1494 32.7792 40.4686 28.7182 36.1932C24.6453 31.9051 23.0865 28.7059 22.7379 26.3269C22.5605 25.116 22.7025 24.1465 22.963 23.4143C23.0912 23.0542 23.2424 22.7671 23.382 22.5491C23.4515 22.4404 23.5178 22.3493 23.5765 22.2753C23.6058 22.2382 23.6332 22.2054 23.6581 22.1767L23.6936 22.1368L23.7099 22.1191L23.7177 22.1108L23.7214 22.1068C23.7233 22.1048 23.7251 22.1029 25.1429 23.4495L23.7251 22.1029L24.49 21.2976C25.6781 20.0468 25.8507 17.9284 24.725 16.3363L21.3623 11.5803Z" fill="#F9FAFB"/>
<path id="Vector_2" d="M36.0253 5.01353C36.2019 3.92316 37.2326 3.1835 38.323 3.36002C38.3905 3.37294 38.6076 3.41353 38.7214 3.43887C38.949 3.48955 39.2664 3.56757 39.6621 3.68284C40.4535 3.91335 41.5592 4.2931 42.8861 4.90146C45.5429 6.11947 49.0784 8.25015 52.7472 11.9189C56.416 15.5877 58.5467 19.1232 59.7647 21.78C60.373 23.107 60.7528 24.2126 60.9833 25.004C61.0986 25.3997 61.1766 25.7171 61.2273 25.9447C61.2526 26.0585 61.2711 26.1498 61.284 26.2173L61.2994 26.3005C61.4759 27.3909 60.743 28.4643 59.6526 28.6408C58.5653 28.8168 57.5411 28.0807 57.3602 26.9955C57.3546 26.9663 57.3393 26.888 57.3229 26.8142C57.29 26.6665 57.2331 26.4323 57.1429 26.1226C56.9624 25.503 56.649 24.5821 56.1286 23.447C55.089 21.1795 53.2197 18.0483 49.9187 14.7474C46.6178 11.4464 43.4866 9.57709 41.2191 8.53754C40.084 8.01713 39.1631 7.70371 38.5435 7.52325C38.2338 7.43303 37.8445 7.34366 37.6968 7.31077C36.6115 7.12991 35.8493 6.10079 36.0253 5.01353Z" fill="#F9FAFB"/>
<path id="Vector_3" fill-rule="evenodd" clip-rule="evenodd" d="M36.6296 14.2121C36.933 13.15 38.04 12.535 39.1021 12.8385L38.5526 14.7615C39.1021 12.8385 39.103 12.8387 39.1039 12.839L39.1059 12.8396L39.11 12.8407L39.1189 12.8433L39.1395 12.8495L39.1923 12.8659C39.2325 12.8788 39.2827 12.8955 39.3426 12.9168C39.4624 12.9593 39.6206 13.0197 39.8148 13.1029C40.2033 13.2694 40.7341 13.5266 41.3862 13.9124C42.6914 14.6849 44.4732 15.9681 46.5665 18.0613C48.6597 20.1546 49.9429 21.9364 50.7154 23.2417C51.1013 23.8937 51.3584 24.4245 51.5249 24.813C51.6081 25.0072 51.6685 25.1655 51.711 25.2852C51.7323 25.3451 51.749 25.3953 51.7619 25.4355L51.7783 25.4883L51.7845 25.5089L51.7871 25.5178L51.7883 25.5219L51.7888 25.5239C51.7891 25.5248 51.7894 25.5258 49.8663 26.0752L51.7894 25.5258C52.0928 26.5878 51.4778 27.6948 50.4158 27.9983C49.3627 28.2991 48.2655 27.6971 47.9512 26.6516L47.9413 26.6229C47.9271 26.5828 47.8977 26.5039 47.8483 26.3887C47.7496 26.1585 47.5707 25.7819 47.2731 25.2789C46.6785 24.2743 45.6046 22.7563 43.7381 20.8898C41.8715 19.0232 40.3535 17.9493 39.3489 17.3548C38.846 17.0571 38.4693 16.8782 38.2391 16.7795C38.1239 16.7301 38.045 16.7007 38.005 16.6865L37.9762 16.6766C36.9307 16.3623 36.3287 15.2651 36.6296 14.2121Z" fill="#F9FAFB"/>
</g>
</svg>
