<svg width="28" height="29" viewBox="0 0 28 29" fill="none" xmlns="http://www.w3.org/2000/svg">
<g id="vuesax/linear/call-calling">
<g id="call-calling">
<g id="call-calling_2">
<path id="Vector" d="M24.2319 23.1601C24.2319 23.5801 24.1386 24.0117 23.9403 24.4317C23.7419 24.8517 23.4853 25.2484 23.1469 25.6217C22.5753 26.2517 21.9453 26.7067 21.2336 26.9984C20.5336 27.2901 19.7753 27.4417 18.9586 27.4417C17.7686 27.4417 16.4969 27.1617 15.1553 26.5901C13.8136 26.0184 12.4719 25.2484 11.1419 24.2801C9.80026 23.3001 8.52859 22.2151 7.31526 21.0134C6.11359 19.8001 5.02859 18.5284 4.06026 17.1984C3.10359 15.8684 2.33359 14.5384 1.77359 13.2201C1.21359 11.8901 0.933594 10.6184 0.933594 9.40507C0.933594 8.61173 1.07359 7.8534 1.35359 7.1534C1.63359 6.44173 2.07693 5.7884 2.69526 5.20507C3.44193 4.47007 4.25859 4.1084 5.12193 4.1084C5.44859 4.1084 5.77526 4.1784 6.06693 4.3184C6.37026 4.4584 6.63859 4.6684 6.84859 4.97173L9.55526 8.78673C9.76526 9.0784 9.91693 9.34673 10.0219 9.6034C10.1269 9.8484 10.1853 10.0934 10.1853 10.3151C10.1853 10.5951 10.1036 10.8751 9.94026 11.1434C9.78859 11.4117 9.56693 11.6917 9.28693 11.9717L8.40026 12.8934C8.27193 13.0217 8.21359 13.1734 8.21359 13.3601C8.21359 13.4534 8.22526 13.5351 8.24859 13.6284C8.28359 13.7217 8.31859 13.7917 8.34193 13.8617C8.55193 14.2467 8.91359 14.7484 9.42693 15.3551C9.95193 15.9617 10.5119 16.5801 11.1186 17.1984C11.7486 17.8167 12.3553 18.3884 12.9736 18.9134C13.5803 19.4267 14.0819 19.7767 14.4786 19.9867C14.5369 20.0101 14.6069 20.0451 14.6886 20.0801C14.7819 20.1151 14.8753 20.1267 14.9803 20.1267C15.1786 20.1267 15.3303 20.0567 15.4586 19.9284L16.3453 19.0534C16.6369 18.7617 16.9169 18.5401 17.1853 18.4001C17.4536 18.2367 17.7219 18.1551 18.0136 18.1551C18.2353 18.1551 18.4686 18.2017 18.7253 18.3067C18.9819 18.4117 19.2503 18.5634 19.5419 18.7617L23.4036 21.5034C23.7069 21.7134 23.9169 21.9584 24.0453 22.2501C24.1619 22.5417 24.2319 22.8334 24.2319 23.1601Z" stroke="#0E74BC" stroke-width="1.5" stroke-miterlimit="10"/>
<path id="Vector_2" d="M20.1829 12.2752C20.1829 11.5752 19.6346 10.5019 18.8179 9.62689C18.0713 8.82189 17.0796 8.19189 16.0996 8.19189" stroke="#0E74BC" stroke-width="1.5" stroke-linecap="round" stroke-linejoin="round"/>
<path id="Vector_3" d="M24.2663 12.2751C24.2663 7.76007 20.6146 4.1084 16.0996 4.1084" stroke="#0E74BC" stroke-width="1.5" stroke-linecap="round" stroke-linejoin="round"/>
</g>
</g>
</g>
</svg>
