<svg width="32" height="32" viewBox="0 0 32 32" fill="none" xmlns="http://www.w3.org/2000/svg">
<g id="Outline / Video, Audio, Sound / Camera">
<path id="Vector" fill-rule="evenodd" clip-rule="evenodd" d="M10.1316 5.98221C10.4873 4.23571 12.0415 3 13.8221 3H18.1785C19.9591 3 21.5133 4.23571 21.8691 5.98221C21.9512 6.38539 22.3165 6.68114 22.6963 6.68114H22.7182L22.74 6.6821C24.6113 6.76392 26.0486 6.99355 27.2485 7.78077C28.0046 8.27676 28.6549 8.91489 29.1617 9.65951C29.7922 10.586 30.0702 11.6493 30.2035 12.9353C30.3337 14.1917 30.3337 15.7667 30.3337 17.7614V17.875C30.3337 19.8697 30.3337 21.4446 30.2035 22.7011C30.0702 23.9871 29.7922 25.0504 29.1617 25.9769C28.6549 26.7215 28.0046 27.3596 27.2485 27.8556C26.3106 28.4709 25.2353 28.7422 23.931 28.8725C22.6541 29 21.0524 29 19.0182 29H12.9824C10.9483 29 9.34655 29 8.06961 28.8725C6.76538 28.7422 5.69008 28.4709 4.75212 27.8556C3.99608 27.3596 3.34573 26.7215 2.83898 25.9769C2.20848 25.0504 1.9304 23.9871 1.79715 22.7011C1.66697 21.4446 1.66698 19.8697 1.66699 17.875V17.7614C1.66698 15.7667 1.66697 14.1917 1.79715 12.9353C1.9304 11.6493 2.20848 10.586 2.83898 9.65951C3.34573 8.91489 3.99608 8.27676 4.75212 7.78077C5.95209 6.99356 7.38939 6.76392 9.26063 6.6821L9.28247 6.68114H9.30432C9.68417 6.68114 10.0494 6.3854 10.1316 5.98221ZM13.8221 5C12.9673 5 12.2524 5.59066 12.0913 6.38142C11.8304 7.66212 10.695 8.66915 9.32877 8.68104C7.53062 8.76093 6.56747 8.98181 5.84918 9.45304C5.31112 9.80602 4.85035 10.2588 4.49241 10.7848C4.1242 11.3258 3.90293 12.0177 3.7865 13.1414C3.66825 14.2828 3.66699 15.7541 3.66699 17.8182C3.66699 19.8822 3.66825 21.3536 3.7865 22.495C3.90293 23.6187 4.1242 24.3106 4.49241 24.8516C4.85035 25.3776 5.31112 25.8303 5.84918 26.1833C6.40588 26.5485 7.11825 26.7675 8.26837 26.8824C9.43431 26.9988 10.9362 27 13.0374 27H18.9633C21.0644 27 22.5663 26.9988 23.7323 26.8824C24.8824 26.7675 25.5948 26.5485 26.1515 26.1833C26.6895 25.8303 27.1503 25.3776 27.5082 24.8516C27.8765 24.3106 28.0977 23.6187 28.2141 22.495C28.3324 21.3536 28.3337 19.8822 28.3337 17.8182C28.3337 15.7541 28.3324 14.2828 28.2141 13.1414C28.0977 12.0177 27.8765 11.3258 27.5082 10.7848C27.1503 10.2588 26.6895 9.80602 26.1515 9.45304C25.4332 8.98181 24.47 8.76093 22.6719 8.68104C21.3057 8.66915 20.1702 7.66212 19.9093 6.38142C19.7483 5.59066 19.0334 5 18.1785 5H13.8221ZM16.0003 14.3333C14.3435 14.3333 13.0003 15.6765 13.0003 17.3333C13.0003 18.9902 14.3435 20.3333 16.0003 20.3333C17.6572 20.3333 19.0003 18.9902 19.0003 17.3333C19.0003 15.6765 17.6572 14.3333 16.0003 14.3333ZM11.0003 17.3333C11.0003 14.5719 13.2389 12.3333 16.0003 12.3333C18.7617 12.3333 21.0003 14.5719 21.0003 17.3333C21.0003 20.0948 18.7617 22.3333 16.0003 22.3333C13.2389 22.3333 11.0003 20.0948 11.0003 17.3333ZM23.0003 13.3333C23.0003 12.781 23.448 12.3333 24.0003 12.3333H25.3337C25.8859 12.3333 26.3337 12.781 26.3337 13.3333C26.3337 13.8856 25.8859 14.3333 25.3337 14.3333H24.0003C23.448 14.3333 23.0003 13.8856 23.0003 13.3333Z" fill="#F9FAFB"/>
</g>
</svg>
