<svg width="64" height="64" viewBox="0 0 64 64" fill="none" xmlns="http://www.w3.org/2000/svg">
<g id="Outline / Essentional, UI / Delivery">
<g id="Vector">
<path fill-rule="evenodd" clip-rule="evenodd" d="M48.2418 6.79671C46.7688 5.97191 45.2006 5.88882 43.5429 6.09601C41.9684 6.29279 40.0527 6.7907 37.7506 7.38906L32.3686 8.78774C30.0675 9.38568 28.1514 9.88356 26.6854 10.4771C25.144 11.1011 23.8113 11.9396 22.9469 13.3919C22.0769 14.8533 21.9905 16.4156 22.2073 18.0474C22.4118 19.5859 22.9276 21.453 23.5422 23.6774L24.9891 28.9144C25.6038 31.1399 26.1195 33.0067 26.7351 34.4372C27.3888 35.956 28.2621 37.249 29.7437 38.0787C31.2167 38.9035 32.7849 38.9866 34.4426 38.7794C36.0171 38.5826 37.9327 38.0847 40.2348 37.4864L45.617 36.0877C47.9181 35.4897 49.8341 34.9918 51.3001 34.3983C52.8415 33.7743 54.1742 32.9358 55.0386 31.4836C55.9086 30.0221 55.995 28.4598 55.7782 26.828C55.5738 25.2895 55.0579 23.4224 54.4433 21.198L52.9964 15.961C52.3817 13.7355 51.866 11.8687 51.2504 10.4382C50.5967 8.91939 49.7234 7.62638 48.2418 6.79671ZM38.6261 11.2944C41.0926 10.6534 42.7544 10.2257 44.039 10.0651C45.27 9.91127 45.8591 10.0469 46.2875 10.2868C46.7071 10.5218 47.1079 10.9315 47.5762 12.0196C48.0701 13.1672 48.5161 14.7649 49.1782 17.1613L50.55 22.1268C51.2122 24.5238 51.6493 26.123 51.813 27.3548C51.9684 28.5248 51.8293 29.0549 51.6015 29.4375C51.3683 29.8294 50.9454 30.2265 49.799 30.6907C48.605 31.1741 46.9461 31.6094 44.479 32.2505L39.3594 33.581C36.8929 34.222 35.2311 34.6497 33.9465 34.8103C32.7155 34.9641 32.1264 34.8285 31.698 34.5886C31.2784 34.3536 30.8776 33.9439 30.4093 32.8558C29.9154 31.7083 29.4694 30.1105 28.8073 27.7141L27.4355 22.7486C26.7733 20.3517 26.3362 18.7525 26.1725 17.5206C26.0171 16.3506 26.1562 15.8205 26.384 15.4379C26.6172 15.0461 27.0401 14.6489 28.1865 14.1847C29.3805 13.7013 31.0394 13.266 33.5065 12.6249L38.6261 11.2944Z" fill="#F9FAFB"/>
<path fill-rule="evenodd" clip-rule="evenodd" d="M8.53472 12.5992C7.47035 12.3039 6.36812 12.9273 6.07282 13.9917C5.77751 15.0561 6.40096 16.1583 7.46532 16.4536L12.0085 17.7141C13.1434 18.029 13.9886 18.8863 14.2774 19.9314L19.4808 38.7664C19.2809 38.8057 19.0811 38.8512 18.8816 38.9031C13.6095 40.2732 10.3879 45.5767 11.8351 50.8154C13.2754 56.0288 18.7519 59.0357 24.0032 57.671C28.5987 56.4767 31.6362 52.2939 31.3817 47.7704L53.8364 41.9349C54.9055 41.657 55.5469 40.5652 55.2691 39.4961C54.9912 38.4271 53.8994 37.7856 52.8303 38.0635L30.3286 43.9112C28.973 41.2783 26.4834 39.4472 23.6445 38.8165L18.1329 18.8662C17.4579 16.4229 15.5229 14.5381 13.0779 13.8597L8.53472 12.5992ZM19.8877 42.7745C23.119 41.9347 26.3615 43.8102 27.1941 46.8239C28.0197 49.8123 26.2074 52.9653 22.9971 53.7996C19.7658 54.6393 16.5233 52.7639 15.6907 49.7502C14.8651 46.7618 16.6774 43.6088 19.8877 42.7745Z" fill="#F9FAFB"/>
</g>
</g>
</svg>
