<svg width="21" height="21" viewBox="0 0 21 21" fill="none" xmlns="http://www.w3.org/2000/svg">
<g id="Group 15">
<path id="Vector" d="M7.00518 10.6764C7.00518 8.83385 8.498 7.33981 10.34 7.33981C12.182 7.33981 13.6756 8.83385 13.6756 10.6764C13.6756 12.5189 12.182 14.0129 10.34 14.0129C8.498 14.0129 7.00518 12.5189 7.00518 10.6764ZM5.20202 10.6764C5.20202 13.5149 7.50228 15.8158 10.34 15.8158C13.1777 15.8158 15.4779 13.5149 15.4779 10.6764C15.4779 7.83785 13.1777 5.53693 10.34 5.53693C7.50228 5.53693 5.20202 7.83785 5.20202 10.6764ZM14.4806 5.33314C14.4805 5.57069 14.5509 5.80293 14.6827 6.0005C14.8146 6.19807 15.002 6.35209 15.2214 6.44308C15.4408 6.53408 15.6822 6.55796 15.9151 6.51171C16.1481 6.46546 16.3621 6.35115 16.53 6.18325C16.698 6.01534 16.8125 5.80138 16.8589 5.56841C16.9053 5.33545 16.8816 5.09394 16.7908 4.87444C16.7001 4.65494 16.5462 4.46729 16.3488 4.33524C16.1514 4.20319 15.9193 4.13265 15.6818 4.13256H15.6813C15.363 4.13271 15.0578 4.25923 14.8326 4.48434C14.6075 4.70944 14.4809 5.01473 14.4806 5.33314ZM6.29756 18.8234C5.32202 18.7789 4.79178 18.6164 4.43941 18.4791C3.97225 18.2971 3.63893 18.0805 3.28848 17.7304C2.93803 17.3803 2.7211 17.0472 2.54003 16.5799C2.40266 16.2276 2.24017 15.6971 2.19582 14.7212C2.14731 13.6662 2.13763 13.3493 2.13763 10.6764C2.13763 8.0036 2.14811 7.68755 2.19582 6.63166C2.24025 5.65583 2.40395 5.12632 2.54003 4.77297C2.7219 4.30567 2.93851 3.97226 3.28848 3.6217C3.63845 3.27115 3.97145 3.05416 4.43941 2.87304C4.79162 2.73564 5.32202 2.57309 6.29756 2.52873C7.35227 2.48021 7.6691 2.47052 10.34 2.47052C13.0109 2.47052 13.328 2.48101 14.3836 2.52873C15.3592 2.57317 15.8885 2.73692 16.2418 2.87304C16.7089 3.05416 17.0422 3.27163 17.3927 3.6217C17.7431 3.97178 17.9593 4.30567 18.1411 4.77297C18.2785 5.12528 18.441 5.65583 18.4853 6.63166C18.5339 7.68755 18.5435 8.0036 18.5435 10.6764C18.5435 13.3493 18.5339 13.6653 18.4853 14.7212C18.4409 15.6971 18.2776 16.2275 18.1411 16.5799C17.9593 17.0472 17.7427 17.3806 17.3927 17.7304C17.0427 18.0801 16.7089 18.2971 16.2418 18.4791C15.8896 18.6165 15.3592 18.779 14.3836 18.8234C13.3289 18.8719 13.0121 18.8816 10.34 18.8816C7.6679 18.8816 7.35195 18.8719 6.29756 18.8234ZM6.21471 0.728094C5.14951 0.776617 4.42164 0.945567 3.78597 1.19299C3.12766 1.44849 2.57037 1.79128 2.01347 2.34745C1.45658 2.90363 1.11477 3.46196 0.859339 4.12047C0.611991 4.75671 0.44309 5.4844 0.394581 6.5499C0.345271 7.61709 0.333984 7.95828 0.333984 10.6764C0.333984 13.3945 0.345271 13.7356 0.394581 14.8028C0.44309 15.8684 0.611991 16.596 0.859339 17.2323C1.11477 17.8904 1.45666 18.4494 2.01347 19.0053C2.57029 19.5612 3.12766 19.9035 3.78597 20.1598C4.42284 20.4072 5.14951 20.5761 6.21471 20.6246C7.28215 20.6732 7.62267 20.6853 10.34 20.6853C13.0573 20.6853 13.3984 20.674 14.4653 20.6246C15.5305 20.5761 16.2579 20.4072 16.894 20.1598C17.5519 19.9035 18.1096 19.5615 18.6665 19.0053C19.2234 18.4491 19.5645 17.8904 19.8206 17.2323C20.068 16.596 20.2377 15.8683 20.2854 14.8028C20.3339 13.7348 20.3452 13.3945 20.3452 10.6764C20.3452 7.95828 20.3339 7.61709 20.2854 6.5499C20.2369 5.48432 20.068 4.75631 19.8206 4.12047C19.5645 3.46236 19.2225 2.90451 18.6665 2.34745C18.1105 1.7904 17.5519 1.44849 16.8948 1.19299C16.2579 0.945567 15.5305 0.775817 14.4661 0.728094C13.3992 0.679571 13.0581 0.66748 10.3408 0.66748C7.62348 0.66748 7.28215 0.67877 6.21471 0.728094Z" fill="#101828"/>
</g>
</svg>
