<svg width="32" height="32" viewBox="0 0 32 32" fill="none" xmlns="http://www.w3.org/2000/svg">
<rect width="32" height="32" rx="16" fill="#6B7280"/>
<path d="M15.5574 11.5806L17.1042 10.0338C17.4234 9.71439 17.8023 9.46095 18.2195 9.288C18.6366 9.11505 19.0837 9.02598 19.5353 9.02588C19.9868 9.02577 20.434 9.11464 20.8512 9.28739C21.2684 9.46014 21.6474 9.7134 21.9667 10.0327C22.286 10.352 22.5393 10.7311 22.712 11.1483C22.8848 11.5655 22.9737 12.0126 22.9736 12.4642C22.9734 12.9157 22.8844 13.3628 22.7114 13.78C22.5385 14.1971 22.285 14.576 21.9656 14.8952L19.7559 17.1049C19.4367 17.4241 19.0577 17.6773 18.6407 17.8501C18.2236 18.0228 17.7766 18.1117 17.3252 18.1117C16.8738 18.1117 16.4268 18.0228 16.0097 17.8501C15.5927 17.6773 15.2137 17.4241 14.8945 17.1049" stroke="white" stroke-width="1.5" stroke-linecap="round" stroke-linejoin="round"/>
<path d="M16.4415 20.4195L14.8947 21.9663C14.5756 22.2858 14.1966 22.5392 13.7795 22.7121C13.3624 22.8851 12.9152 22.9742 12.4637 22.9743C12.0121 22.9744 11.565 22.8855 11.1478 22.7128C10.7306 22.54 10.3515 22.2867 10.0322 21.9674C9.71291 21.6482 9.45966 21.2691 9.2869 20.8519C9.11415 20.4347 9.02529 19.9875 9.02539 19.536C9.0255 19.0844 9.11457 18.6373 9.28751 18.2202C9.46046 17.8031 9.7139 17.4241 10.0333 17.105L12.2431 14.8952C12.5623 14.576 12.9412 14.3228 13.3583 14.1501C13.7753 13.9773 14.2223 13.8884 14.6737 13.8884C15.1252 13.8884 15.5721 13.9773 15.9892 14.1501C16.4063 14.3228 16.7852 14.576 17.1044 14.8952" stroke="white" stroke-width="1.5" stroke-linecap="round" stroke-linejoin="round"/>
</svg>
