<svg width="40" height="40" viewBox="0 0 40 40" fill="none" xmlns="http://www.w3.org/2000/svg">
<g id="coupon 1" clip-path="url(#clip0_2081_3018)">
<g id="Group">
<path id="Vector" d="M17.4575 11.1218C18.0923 12.2666 11.4999 18.8074 6.72912 18.8074C4.73253 17.5074 2.49269 16.415 0 15.5972L4.52067 12.4436C5.68375 13.387 7.68906 13.0025 8.86434 12.2326C10.0396 11.4619 9.67518 10.3162 8.82336 9.81141L11.9054 7.61865C13.8105 8.50448 15.6745 9.69022 17.4575 11.1218Z" fill="#FF8293"/>
<path id="Vector_2" d="M30.6131 29.8505L27.6208 31.5978C26.4639 30.4426 25.5763 29.9726 24.3688 30.5271C22.9833 31.1627 22.8683 32.9919 23.8535 34.2596L19.216 37.3234C17.7582 30.4975 13.7389 23.3717 6.729 18.8074C11.0936 13.2169 17.2264 11.1959 17.4574 11.1218C22.9982 15.5675 27.7682 22.3734 30.6131 29.8505Z" fill="#FF6B7D"/>
<g id="Group_2">
<path id="Vector_3" d="M12.3223 17.9256C13.3278 17.1943 14.8671 17.4722 15.7531 18.545C16.6391 19.6178 16.5413 21.0852 15.5357 21.8165C14.5302 22.5477 12.9921 22.27 12.1061 21.1973C11.2201 20.1245 11.3168 18.6569 12.3223 17.9256ZM14.4747 20.5318C14.8161 20.2835 14.8497 19.7851 14.5489 19.4208C14.2481 19.0566 13.7248 18.9621 13.3834 19.2104C13.0419 19.4587 13.0095 19.9573 13.3103 20.3216C13.6111 20.6858 14.1333 20.78 14.4747 20.5318Z" fill="#F0E3E7"/>
<path id="Vector_4" d="M16.9021 15.6167C16.9987 15.5466 17.1171 15.5002 17.2511 15.4863C17.6833 15.4425 18.1144 15.7521 18.2145 16.179L20.5576 26.1965C20.6264 26.4909 20.5206 26.7644 20.3063 26.9202C20.2099 26.9903 20.0911 27.0366 19.9567 27.05C19.5251 27.0944 19.094 26.7838 18.9939 26.3569L16.6508 16.3394C16.5818 16.0452 16.6882 15.7725 16.9021 15.6167Z" fill="#F0E3E7"/>
<path id="Vector_5" d="M21.5226 20.7256C22.5282 19.9943 24.0669 20.2716 24.9529 21.3443C25.8389 22.4171 25.7416 23.8852 24.736 24.6165C23.7305 25.3478 22.1912 25.0699 21.3052 23.9971C20.4193 22.9244 20.5171 21.4569 21.5226 20.7256ZM23.675 23.3317C24.0164 23.0834 24.0499 22.585 23.7486 22.2201C23.4478 21.8559 22.925 21.7621 22.5837 22.0104C22.2423 22.2587 22.2087 22.7571 22.5095 23.1213C22.8108 23.4862 23.3335 23.58 23.675 23.3317Z" fill="#F0E3E7"/>
</g>
<path id="Vector_6" d="M34.86 8.66304C32.7709 12.1158 23.9544 12.7917 20.6921 11.9247C19.5046 10.0136 18.1209 8.11551 16.5254 6.16861L21.8482 4.7649C22.5936 6.13199 24.5615 6.81641 25.9277 6.5008C27.2939 6.18431 27.3837 4.92183 26.783 3.79363L30.1502 2.67676C31.9227 4.3185 33.5077 6.34473 34.86 8.66304Z" fill="#FF9FB3"/>
<path id="Vector_7" d="M39.9163 31.7276L36.5143 32.3222C36.4585 31.1034 36.0775 29.82 34.5604 29.82C32.8228 29.82 31.2726 31.9822 31.7382 33.6013L26.6665 34.7958C26.5784 25.3028 24.805 18.5353 20.6924 11.9248C28.1539 7.62032 34.8603 8.66308 34.8603 8.66308C38.4786 14.8595 40.4403 23.1405 39.9163 31.7276Z" fill="#FF8293"/>
<g id="Group_3">
<path id="Vector_8" d="M26.5125 12.8886C27.7205 12.5094 29.1161 13.2775 29.6229 14.6007C30.1297 15.924 29.5587 17.3086 28.3506 17.6879C27.1426 18.0672 25.7481 17.2996 25.2413 15.9765C24.7344 14.6531 25.3044 13.2679 26.5125 12.8886ZM27.7436 16.1032C28.1538 15.9745 28.3481 15.5043 28.1761 15.055C28.004 14.6057 27.5296 14.3446 27.1195 14.4734C26.7093 14.6021 26.516 15.0729 26.6881 15.5222C26.8601 15.9714 27.3334 16.232 27.7436 16.1032Z" fill="#FCF4F6"/>
<path id="Vector_9" d="M31.683 12.1475C31.7989 12.111 31.9282 12.1047 32.0622 12.135C32.4936 12.233 32.8092 12.6719 32.7672 13.1165L31.7757 23.5467C31.7464 23.8532 31.5555 24.0827 31.298 24.1636C31.1822 24.2 31.0524 24.2061 30.9183 24.1754C30.4873 24.0782 30.1721 23.6383 30.2142 23.1938L31.2057 12.7635C31.2347 12.457 31.4259 12.2283 31.683 12.1475Z" fill="#FCF4F6"/>
<path id="Vector_10" d="M34.4836 18.5791C35.6916 18.1999 37.0868 18.9672 37.5936 20.2904C38.1005 21.6136 37.5297 22.999 36.3217 23.3784C35.1136 23.7576 33.7181 22.9895 33.2112 21.6663C32.7045 20.3431 33.2755 18.9585 34.4836 18.5791ZM35.7147 21.7937C36.1249 21.6649 36.3192 21.1947 36.1468 20.7447C35.9747 20.2954 35.5007 20.0351 35.0905 20.1638C34.6803 20.2926 34.486 20.7628 34.658 21.2121C34.8305 21.6622 35.3045 21.9225 35.7147 21.7937Z" fill="#FCF4F6"/>
</g>
</g>
</g>
<defs>
<clipPath id="clip0_2081_3018">
<rect width="40" height="40" fill="white"/>
</clipPath>
</defs>
</svg>
