<svg width="24" height="24" viewBox="0 0 24 24" fill="none" xmlns="http://www.w3.org/2000/svg">
<g id="Outline / Like / Dislike">
<path id="Vector" fill-rule="evenodd" clip-rule="evenodd" d="M12.4382 21.2218C12.2931 21.2684 12.1345 21.2571 11.9998 21.1922C11.8523 21.1211 11.7548 20.997 11.7197 20.862L11.244 19.0282C11.0777 18.3869 10.8354 17.7683 10.5235 17.1843C10.0392 16.2776 9.30632 15.5802 8.62647 14.9944L7.18773 13.7546C6.96475 13.5625 6.8474 13.2744 6.87282 12.9805L7.68498 3.58778C7.72601 3.11327 8.12244 2.75025 8.59635 2.75025H13.245C16.3813 2.75025 19.0238 4.93251 19.5306 7.8631L20.2361 11.9429C20.3332 12.5043 19.9014 13.016 19.3348 13.016H14.1537C13.1766 13.016 12.4344 13.8927 12.5921 14.8555L13.2548 18.9001C13.3456 19.4541 13.3197 20.021 13.1787 20.5644C13.1072 20.8402 12.8896 21.0768 12.5832 21.1753L12.4382 21.2218L12.6676 21.9359L12.4382 21.2218ZM11.3486 22.5435C11.8312 22.776 12.3873 22.8137 12.897 22.65L13.042 22.6034L12.8126 21.8893L13.042 22.6034C13.819 22.3538 14.4252 21.7331 14.6307 20.941C14.8241 20.1955 14.8596 19.4177 14.7351 18.6576L14.0724 14.613C14.0639 14.5612 14.1038 14.516 14.1537 14.516H19.3348C20.8341 14.516 21.9695 13.1637 21.7142 11.6873L21.0087 7.60749C20.3708 3.9192 17.0712 1.25025 13.245 1.25025H8.59635C7.3427 1.25025 6.29852 2.21 6.19056 3.45856L5.3784 12.8512C5.31149 13.625 5.62022 14.3839 6.20855 14.8909L7.64729 16.1307C8.3025 16.6953 8.85404 17.2426 9.20042 17.891C9.45699 18.3713 9.65573 18.8792 9.79208 19.4048L10.2678 21.2387C10.417 21.814 10.8166 22.2872 11.3486 22.5435ZM2.96767 14.5153C3.36893 14.5327 3.71261 14.2308 3.74721 13.8307L4.71881 2.59414C4.78122 1.87234 4.21268 1.25025 3.48671 1.25025C2.80289 1.25025 2.25 1.80499 2.25 2.4875V13.766C2.25 14.1677 2.5664 14.498 2.96767 14.5153Z" fill="#6B7280"/>
</g>
</svg>
