<svg width="25" height="24" viewBox="0 0 25 24" fill="none" xmlns="http://www.w3.org/2000/svg">
<g id="Outline / Arrows / Double Alt Arrow Down">
<path id="Vector (Stroke)" fill-rule="evenodd" clip-rule="evenodd" d="M4.93057 6.51215C5.20014 6.19765 5.67361 6.16123 5.98811 6.4308L12.5 12.0124L19.0119 6.4308C19.3264 6.16123 19.7999 6.19765 20.0695 6.51215C20.339 6.82664 20.3026 7.30012 19.9881 7.56968L12.9881 13.5697C12.7072 13.8104 12.2928 13.8104 12.0119 13.5697L5.01192 7.56968C4.69743 7.30012 4.661 6.82664 4.93057 6.51215ZM4.93057 10.5121C5.20014 10.1977 5.67361 10.1612 5.98811 10.4308L12.5 16.0124L19.0119 10.4308C19.3264 10.1612 19.7999 10.1977 20.0695 10.5121C20.339 10.8266 20.3026 11.3001 19.9881 11.5697L12.9881 17.5697C12.7072 17.8104 12.2928 17.8104 12.0119 17.5697L5.01192 11.5697C4.69743 11.3001 4.661 10.8266 4.93057 10.5121Z" fill="#0E74BC"/>
</g>
</svg>
