<svg width="20" height="20" viewBox="0 0 20 20" fill="none" xmlns="http://www.w3.org/2000/svg">
<g id="Outline / Arrows / Double Alt Arrow Down">
<path id="Vector (Stroke)" fill-rule="evenodd" clip-rule="evenodd" d="M3.6921 5.42664C3.91674 5.16456 4.3113 5.13421 4.57338 5.35885L9.99997 10.0102L15.4266 5.35885C15.6886 5.13421 16.0832 5.16456 16.3078 5.42664C16.5325 5.68872 16.5021 6.08328 16.24 6.30792L10.4067 11.3079C10.1727 11.5085 9.82728 11.5085 9.59323 11.3079L3.75989 6.30792C3.49781 6.08328 3.46746 5.68872 3.6921 5.42664ZM3.6921 8.75997C3.91674 8.4979 4.3113 8.46754 4.57338 8.69218L9.99997 13.3435L15.4266 8.69218C15.6886 8.46754 16.0832 8.4979 16.3078 8.75997C16.5325 9.02205 16.5021 9.41662 16.24 9.64125L10.4067 14.6413C10.1727 14.8419 9.82728 14.8419 9.59323 14.6413L3.75989 9.64125C3.49781 9.41662 3.46746 9.02205 3.6921 8.75997Z" fill="#1C274C"/>
</g>
</svg>
