<svg width="20" height="20" viewBox="0 0 20 20" fill="none" xmlns="http://www.w3.org/2000/svg">
<g id="Outline / Essentional, UI / Copy">
<path id="Vector" fill-rule="evenodd" clip-rule="evenodd" d="M12.5 1.04175H9.11965C7.58819 1.04174 6.37516 1.04172 5.42582 1.16936C4.4488 1.30072 3.65801 1.57748 3.03437 2.20112C2.41073 2.82475 2.13397 3.61554 2.00261 4.59256C1.87498 5.54191 1.87499 6.75493 1.875 8.28639V13.3334C1.875 14.8936 3.01838 16.1868 4.51293 16.4207C4.6279 17.0573 4.84794 17.6008 5.29029 18.0431C5.79189 18.5447 6.42345 18.7605 7.17354 18.8613C7.89602 18.9584 8.81462 18.9584 9.95428 18.9584H12.5457C13.6854 18.9584 14.604 18.9584 15.3265 18.8613C16.0766 18.7605 16.7081 18.5447 17.2097 18.0431C17.7113 17.5415 17.9271 16.91 18.0279 16.1599C18.125 15.4374 18.125 14.5188 18.125 13.3791V9.12103C18.125 7.98136 18.125 7.06276 18.0279 6.34029C17.9271 5.5902 17.7113 4.95864 17.2097 4.45704C16.7674 4.01469 16.2239 3.79465 15.5873 3.67968C15.3534 2.18512 14.0602 1.04175 12.5 1.04175ZM14.2744 3.55939C14.0221 2.82194 13.323 2.29175 12.5 2.29175H9.16667C7.57765 2.29175 6.44876 2.29308 5.59238 2.40821C4.75397 2.52094 4.27093 2.73233 3.91825 3.085C3.56558 3.43768 3.35419 3.92071 3.24147 4.75912C3.12633 5.61551 3.125 6.7444 3.125 8.33341V13.3334C3.125 14.1564 3.6552 14.8555 4.39264 15.1079C4.37498 14.5996 4.37499 14.0248 4.375 13.3791V9.12102C4.37498 7.98136 4.37497 7.06276 4.4721 6.34029C4.57295 5.5902 4.7887 4.95864 5.29029 4.45704C5.79189 3.95544 6.42345 3.7397 7.17354 3.63885C7.89601 3.54172 8.81461 3.54173 9.95427 3.54175H12.5457C13.1914 3.54174 13.7661 3.54173 14.2744 3.55939ZM6.17418 5.34092C6.40481 5.11029 6.72862 4.95992 7.3401 4.87771C7.96956 4.79308 8.80382 4.79175 10 4.79175H12.5C13.6962 4.79175 14.5304 4.79308 15.1599 4.87771C15.7714 4.95992 16.0952 5.11029 16.3258 5.34092C16.5565 5.57156 16.7068 5.89537 16.789 6.50685C16.8737 7.13631 16.875 7.97057 16.875 9.16675V13.3334C16.875 14.5296 16.8737 15.3639 16.789 15.9933C16.7068 16.6048 16.5565 16.9286 16.3258 17.1592C16.0952 17.3899 15.7714 17.5402 15.1599 17.6225C14.5304 17.7071 13.6962 17.7084 12.5 17.7084H10C8.80382 17.7084 7.96956 17.7071 7.3401 17.6225C6.72862 17.5402 6.40481 17.3899 6.17418 17.1592C5.94354 16.9286 5.79317 16.6048 5.71096 15.9933C5.62633 15.3639 5.625 14.5296 5.625 13.3334V9.16675C5.625 7.97057 5.62633 7.13631 5.71096 6.50685C5.79317 5.89537 5.94354 5.57156 6.17418 5.34092Z" fill="#9CA3AF"/>
</g>
</svg>
