<svg width="32" height="32" viewBox="0 0 32 32" fill="none" xmlns="http://www.w3.org/2000/svg">
<path d="M31.999 16.0006C31.999 24.0822 26.0103 30.7633 18.2304 31.8475C17.5029 31.9484 16.7587 32.0011 16.0032 32.0011C15.1312 32.0011 14.2749 31.9316 13.441 31.797C5.8236 30.5705 0.00634766 23.9644 0.00634766 16.0006C0.00634766 7.16342 7.16863 -0.000976562 16.0021 -0.000976562C24.8356 -0.000976562 31.999 7.16342 31.999 16.0006Z" fill="#1877F2"/>
<path d="M18.23 12.8466V16.3323H22.5408L21.8582 21.0279H18.23V31.8462C17.5025 31.9471 16.7583 31.9998 16.0028 31.9998C15.1308 31.9998 14.2744 31.9303 13.4405 31.7958V21.0279H9.46484V16.3323H13.4405V12.0673C13.4405 9.42134 15.5847 7.27539 18.2311 7.27539V7.27763C18.2389 7.27763 18.2456 7.27539 18.2535 7.27539H22.5419V11.3363H19.7398C18.907 11.3363 18.2311 12.0124 18.2311 12.8455L18.23 12.8466Z" fill="white"/>
</svg>
