<svg width="36" height="36" viewBox="0 0 36 36" fill="none" xmlns="http://www.w3.org/2000/svg">
<g id="Outline / Essentional, UI / Filter">
<path id="Vector" fill-rule="evenodd" clip-rule="evenodd" d="M7.42951 3.375C7.45293 3.375 7.47643 3.375 7.50001 3.375L28.5705 3.375C29.5709 3.37496 30.4261 3.37492 31.1097 3.46114C31.8346 3.55258 32.5353 3.75794 33.1107 4.29787C33.6964 4.84732 33.929 5.53284 34.0313 6.24608C34.1251 6.90127 34.1251 7.71595 34.125 8.64538L34.125 9.81018C34.125 10.5429 34.1251 11.1764 34.0703 11.7047C34.0115 12.2731 33.8828 12.8064 33.5738 13.3184C33.2672 13.8266 32.8541 14.1954 32.3781 14.5261C31.9297 14.8375 31.3568 15.16 30.683 15.5393L26.2693 18.0239C25.2646 18.5895 24.9148 18.7931 24.6813 18.9959C24.1449 19.4616 23.8377 19.9782 23.6934 20.6256C23.6317 20.9023 23.625 21.2508 23.625 22.3094L23.625 26.4075C23.6251 27.7593 23.6251 28.907 23.486 29.7894C23.3381 30.7276 22.9947 31.6274 22.0947 32.1904C21.2151 32.7405 20.2463 32.69 19.3047 32.4664C18.3979 32.251 17.2804 31.8141 15.9395 31.2899L15.8092 31.2389C15.1811 30.9934 14.6312 30.7785 14.1958 30.5537C13.7278 30.312 13.2933 30.0114 12.9608 29.5436C12.6246 29.0704 12.4898 28.5631 12.4297 28.0445C12.3749 27.5716 12.375 27.004 12.375 26.3709L12.375 22.3094C12.375 21.2508 12.3683 20.9023 12.3066 20.6256C12.1623 19.9782 11.8551 19.4616 11.3188 18.9959C11.0852 18.7931 10.7354 18.5895 9.73071 18.0239L5.31706 15.5393C4.64323 15.16 4.0703 14.8375 3.62188 14.5261C3.14586 14.1954 2.73286 13.8266 2.42621 13.3184C2.11723 12.8064 1.98856 12.2731 1.92967 11.7047C1.87495 11.1764 1.87497 10.5429 1.87501 9.81017L1.87501 8.722C1.87501 8.69636 1.87501 8.67081 1.875 8.64535C1.87493 7.71594 1.87487 6.90126 1.96876 6.24608C2.07097 5.53284 2.30364 4.84732 2.88927 4.29787C3.46475 3.75794 4.16543 3.55258 4.89035 3.46114C5.57389 3.37492 6.4291 3.37496 7.42951 3.375ZM5.17194 5.69345C4.67145 5.75658 4.5123 5.86036 4.42877 5.93874C4.35539 6.00758 4.25855 6.12877 4.19601 6.56524C4.12771 7.04182 4.12501 7.69303 4.12501 8.722V9.75672C4.12501 10.558 4.12639 11.0742 4.16769 11.4728C4.20616 11.8441 4.27219 12.0226 4.35261 12.1559C4.43535 12.293 4.57276 12.447 4.9055 12.6781C5.25609 12.9217 5.73504 13.1926 6.4649 13.6035L10.8344 16.0632C10.8754 16.0863 10.9157 16.1089 10.9554 16.1313C11.7934 16.6028 12.3642 16.9239 12.7938 17.2968C13.6808 18.0669 14.25 19.0023 14.5027 20.1359C14.6255 20.6869 14.6253 21.3047 14.625 22.1767C14.625 22.2203 14.625 22.2645 14.625 22.3094V26.3136C14.625 27.0218 14.6268 27.4575 14.6648 27.7854C14.6991 28.082 14.7533 28.1816 14.795 28.2403C14.8404 28.3042 14.9304 28.4007 15.228 28.5544C15.5467 28.7189 15.9856 28.8921 16.6788 29.1631C18.1204 29.7266 19.09 30.1028 19.8246 30.2773C20.5425 30.4478 20.7791 30.3593 20.9015 30.2828C21.0034 30.2191 21.1609 30.0895 21.2635 29.439C21.3717 28.7529 21.375 27.7852 21.375 26.3136V22.3094C21.375 22.2645 21.375 22.2203 21.375 22.1767C21.3747 21.3047 21.3745 20.6869 21.4973 20.1359C21.7501 19.0023 22.3192 18.0669 23.2062 17.2968C23.6358 16.9239 24.2066 16.6028 25.0446 16.1313C25.0843 16.109 25.1246 16.0863 25.1656 16.0632L29.5351 13.6035C30.265 13.1926 30.7439 12.9217 31.0945 12.6781C31.4273 12.447 31.5647 12.293 31.6474 12.1559C31.7278 12.0226 31.7939 11.8441 31.8323 11.4728C31.8736 11.0742 31.875 10.558 31.875 9.75672V8.722C31.875 7.69303 31.8723 7.04182 31.804 6.56524C31.7415 6.12877 31.6446 6.00758 31.5712 5.93874C31.4877 5.86036 31.3286 5.75658 30.8281 5.69345C30.3022 5.62711 29.5906 5.625 28.5 5.625H7.50001C6.40946 5.625 5.69782 5.62711 5.17194 5.69345Z" fill="#373A51"/>
</g>
</svg>
