<svg width="17" height="16" viewBox="0 0 17 16" fill="none" xmlns="http://www.w3.org/2000/svg">
<g id="Outline / Search / Magnifer" clip-path="url(#clip0_4018_4294)">
<path id="Vector" fill-rule="evenodd" clip-rule="evenodd" d="M8.14567 1.83325C4.72266 1.83325 1.94775 4.44492 1.94775 7.66659C1.94775 10.8882 4.72266 13.4999 8.14567 13.4999C11.5687 13.4999 14.3436 10.8882 14.3436 7.66659C14.3436 4.44492 11.5687 1.83325 8.14567 1.83325ZM0.885254 7.66659C0.885254 3.89264 4.13585 0.833252 8.14567 0.833252C12.1555 0.833252 15.4061 3.89264 15.4061 7.66659C15.4061 9.37359 14.7411 10.9344 13.6415 12.1321L15.9588 14.313C16.1663 14.5083 16.1663 14.8249 15.9588 15.0201C15.7514 15.2154 15.415 15.2154 15.2075 15.0201L12.8902 12.8392C11.6177 13.874 9.95937 14.4999 8.14567 14.4999C4.13585 14.4999 0.885254 11.4405 0.885254 7.66659Z" fill="#6B7280"/>
</g>
<defs>
<clipPath id="clip0_4018_4294">
<rect width="17" height="16" fill="white"/>
</clipPath>
</defs>
</svg>
