<svg width="20" height="20" viewBox="0 0 20 20" fill="none" xmlns="http://www.w3.org/2000/svg">
<g id="Outline / Map &#38; Location / Map Point">
<path id="Vector" fill-rule="evenodd" clip-rule="evenodd" d="M2.70834 8.45258C2.70834 4.37006 5.96251 1.0415 10 1.0415C14.0375 1.0415 17.2917 4.37006 17.2917 8.45258C17.2917 10.4235 16.73 12.5398 15.737 14.3681C14.7453 16.1941 13.2964 17.7809 11.4838 18.6281C10.5421 19.0682 9.45786 19.0682 8.51624 18.6281C6.70364 17.7809 5.25468 16.1941 4.26297 14.3681C3.27003 12.5398 2.70834 10.4235 2.70834 8.45258ZM10 2.2915C6.6737 2.2915 3.95834 5.03941 3.95834 8.45258C3.95834 10.2001 4.46053 12.1127 5.36142 13.7715C6.26354 15.4325 7.53835 16.7912 9.04554 17.4957C9.65171 17.779 10.3483 17.779 10.9545 17.4957C12.4617 16.7912 13.7365 15.4325 14.6386 13.7715C15.5395 12.1127 16.0417 10.2001 16.0417 8.45258C16.0417 5.03941 13.3263 2.2915 10 2.2915ZM10 6.45817C8.96447 6.45817 8.125 7.29764 8.125 8.33317C8.125 9.3687 8.96447 10.2082 10 10.2082C11.0355 10.2082 11.875 9.3687 11.875 8.33317C11.875 7.29764 11.0355 6.45817 10 6.45817ZM6.875 8.33317C6.875 6.60728 8.27411 5.20817 10 5.20817C11.7259 5.20817 13.125 6.60728 13.125 8.33317C13.125 10.0591 11.7259 11.4582 10 11.4582C8.27411 11.4582 6.875 10.0591 6.875 8.33317Z" fill="white"/>
</g>
</svg>
