<svg width="65" height="64" viewBox="0 0 65 64" fill="none" xmlns="http://www.w3.org/2000/svg">
<g id="Outline / Map &#38; Location / GPS">
<path id="Vector" fill-rule="evenodd" clip-rule="evenodd" d="M32.3333 3.33325C33.4379 3.33325 34.3333 4.22868 34.3333 5.33325V8.7511C45.6245 9.7096 54.6236 18.7088 55.5821 29.9999H59C60.1045 29.9999 61 30.8954 61 31.9999C61 33.1045 60.1045 33.9999 59 33.9999H55.5821C54.6236 45.2911 45.6245 54.2902 34.3333 55.2487V58.6666C34.3333 59.7712 33.4379 60.6666 32.3333 60.6666C31.2287 60.6666 30.3333 59.7712 30.3333 58.6666V55.2487C19.0421 54.2902 10.043 45.2911 9.08447 33.9999H5.66663C4.56206 33.9999 3.66663 33.1045 3.66663 31.9999C3.66663 30.8954 4.56206 29.9999 5.66663 29.9999H9.08447C10.043 18.7088 19.0421 9.7096 30.3333 8.7511V5.33325C30.3333 4.22868 31.2287 3.33325 32.3333 3.33325ZM32.3333 12.6666C21.6558 12.6666 13 21.3224 13 31.9999C13 42.6774 21.6558 51.3333 32.3333 51.3333C43.0108 51.3333 51.6666 42.6774 51.6666 31.9999C51.6666 21.3224 43.0108 12.6666 32.3333 12.6666ZM32.3333 25.9999C29.0196 25.9999 26.3333 28.6862 26.3333 31.9999C26.3333 35.3136 29.0196 37.9999 32.3333 37.9999C35.647 37.9999 38.3333 35.3136 38.3333 31.9999C38.3333 28.6862 35.647 25.9999 32.3333 25.9999ZM22.3333 31.9999C22.3333 26.4771 26.8104 21.9999 32.3333 21.9999C37.8561 21.9999 42.3333 26.4771 42.3333 31.9999C42.3333 37.5228 37.8561 41.9999 32.3333 41.9999C26.8104 41.9999 22.3333 37.5228 22.3333 31.9999Z" fill="#F9FAFB"/>
</g>
</svg>
