<svg width="28" height="29" viewBox="0 0 28 29" fill="none" xmlns="http://www.w3.org/2000/svg">
<g id="Outline / Map &#38; Location / Map Point">
<path id="Vector" fill-rule="evenodd" clip-rule="evenodd" d="M3.79102 12.7088C3.79102 6.99324 8.34686 2.33325 13.9993 2.33325C19.6518 2.33325 24.2077 6.99324 24.2077 12.7088C24.2077 15.468 23.4213 18.4308 22.0312 20.9904C20.6428 23.5469 18.6143 25.7683 16.0766 26.9545C14.7583 27.5706 13.2404 27.5706 11.9221 26.9545C9.38445 25.7683 7.3559 23.5469 5.9675 20.9904C4.57738 18.4308 3.79102 15.468 3.79102 12.7088ZM13.9993 4.08325C9.34252 4.08325 5.54102 7.93031 5.54102 12.7088C5.54102 15.1553 6.24409 17.8329 7.50534 20.1552C8.7683 22.4807 10.553 24.3828 12.6631 25.3691C13.5117 25.7658 14.487 25.7658 15.3356 25.3691C17.4457 24.3828 19.2304 22.4807 20.4934 20.1552C21.7546 17.8329 22.4577 15.1553 22.4577 12.7088C22.4577 7.93031 18.6562 4.08325 13.9993 4.08325ZM13.9993 9.91658C12.5496 9.91658 11.3743 11.0918 11.3743 12.5416C11.3743 13.9913 12.5496 15.1666 13.9993 15.1666C15.4491 15.1666 16.6243 13.9913 16.6243 12.5416C16.6243 11.0918 15.4491 9.91658 13.9993 9.91658ZM9.62435 12.5416C9.62435 10.1253 11.5831 8.16658 13.9993 8.16658C16.4156 8.16658 18.3743 10.1253 18.3743 12.5416C18.3743 14.9578 16.4156 16.9166 13.9993 16.9166C11.5831 16.9166 9.62435 14.9578 9.62435 12.5416Z" fill="#0E74BC"/>
</g>
</svg>
