<svg width="32" height="32" viewBox="0 0 32 32" fill="none" xmlns="http://www.w3.org/2000/svg">
<path d="M16.0391 -0.00219727H15.9663C7.15184 -0.00219727 0.00634766 7.1454 0.00634766 15.9624V16.0353C0.00634766 24.8523 7.15184 31.9999 15.9663 31.9999H16.0391C24.8535 31.9999 31.999 24.8523 31.999 16.0353V15.9624C31.999 7.1454 24.8535 -0.00219727 16.0391 -0.00219727Z" fill="#FF0000"/>
<path fill-rule="evenodd" clip-rule="evenodd" d="M14.5427 20.3743C14.5237 20.4404 14.5057 20.4965 14.4912 20.5525C13.6449 23.869 13.5508 24.6056 12.681 26.1461C12.2663 26.8783 11.7989 27.5723 11.2821 28.236C11.2239 28.3111 11.1689 28.4076 11.0524 28.384C10.9246 28.3571 10.9145 28.2416 10.901 28.1396C10.7621 27.1317 10.6847 26.1215 10.7183 25.1034C10.7621 23.7782 10.9257 23.323 12.6339 16.1384C12.6586 16.0285 12.6305 15.9377 12.5947 15.839C12.1856 14.7358 12.1048 13.6157 12.4624 12.4811C13.2358 10.0302 16.0133 9.84293 16.4986 11.8644C16.7979 13.1146 16.0066 14.7515 15.3991 17.171C14.8958 19.1667 17.2451 20.5862 19.2526 19.1286C21.1042 17.7854 21.8227 14.5654 21.686 12.2826C21.4169 7.73173 16.428 6.74845 13.2638 8.21384C9.6356 9.89226 8.81065 14.3905 10.4493 16.4467C10.6567 16.708 11.0479 16.8683 10.9795 17.1329C10.8741 17.5444 10.7811 17.9592 10.6668 18.3684C10.5816 18.6734 10.0963 18.7844 9.78804 18.6588C9.1839 18.4144 8.68063 18.0298 8.27264 17.5231C6.88165 15.7998 6.48375 12.3914 8.32308 9.50545C10.3608 6.30894 14.1515 5.01509 17.6127 5.40751C21.7465 5.87729 24.3592 8.70268 24.8479 11.9082C25.0709 13.3679 24.9107 16.9681 22.8617 19.5132C20.5046 22.4372 16.6836 22.6312 14.9204 20.8362C14.7848 20.6983 14.6761 20.5379 14.5427 20.3731V20.3743Z" fill="white"/>
</svg>
