<svg width="24" height="24" viewBox="0 0 24 24" fill="none" xmlns="http://www.w3.org/2000/svg">
<g id="Bold / Like / Star">
<path id="Vector" d="M9.15316 5.4085C10.4198 3.13625 11.0531 2.00012 12 2.00012C12.9469 2.00012 13.5802 3.13625 14.8468 5.4085L15.1745 5.99635C15.5345 6.64206 15.7144 6.96491 15.9951 7.17793C16.2757 7.39095 16.6251 7.47002 17.3241 7.62817L17.9605 7.77215C20.4201 8.32868 21.65 8.60694 21.9426 9.54785C22.2352 10.4888 21.3968 11.4692 19.7199 13.43L19.2861 13.9373C18.8096 14.4946 18.5713 14.7732 18.4641 15.1178C18.357 15.4625 18.393 15.8342 18.465 16.5777L18.5306 17.2545C18.7841 19.8707 18.9109 21.1788 18.1449 21.7603C17.3788 22.3419 16.2273 21.8117 13.9243 20.7513L13.3285 20.477C12.6741 20.1756 12.3469 20.025 12 20.025C11.6531 20.025 11.3259 20.1756 10.6715 20.477L10.0757 20.7513C7.77268 21.8117 6.62118 22.3419 5.85515 21.7603C5.08912 21.1788 5.21588 19.8707 5.4694 17.2545L5.53498 16.5777C5.60703 15.8342 5.64305 15.4625 5.53586 15.1178C5.42868 14.7732 5.19043 14.4946 4.71392 13.9373L4.2801 13.43C2.60325 11.4692 1.76482 10.4888 2.05742 9.54785C2.35002 8.60694 3.57986 8.32868 6.03954 7.77215L6.67589 7.62817C7.37485 7.47002 7.72433 7.39095 8.00494 7.17793C8.28555 6.96491 8.46553 6.64206 8.82547 5.99636L9.15316 5.4085Z" fill="#D1D5DB"/>
</g>
</svg>
