<svg width="16" height="16" viewBox="0 0 16 16" fill="none" xmlns="http://www.w3.org/2000/svg">
<g id="Bold / Like / Star">
<path id="Vector" d="M6.1021 3.60562C6.94654 2.09079 7.36875 1.33337 8 1.33337C8.63124 1.33337 9.05345 2.09079 9.89789 3.60562L10.1164 3.99753C10.3563 4.428 10.4763 4.64323 10.6634 4.78525C10.8504 4.92726 11.0834 4.97997 11.5494 5.08541L11.9736 5.18139C13.6134 5.55241 14.4333 5.73792 14.6284 6.36519C14.8234 6.99247 14.2645 7.64609 13.1466 8.95332L12.8574 9.29152C12.5397 9.663 12.3809 9.84873 12.3094 10.0785C12.238 10.3083 12.262 10.5561 12.31 11.0517L12.3537 11.503C12.5227 13.2471 12.6072 14.1192 12.0966 14.5069C11.5859 14.8945 10.8182 14.5411 9.28288 13.8342L8.88567 13.6513C8.44938 13.4504 8.23123 13.3499 8 13.3499C7.76876 13.3499 7.55061 13.4504 7.11432 13.6513L6.71711 13.8342C5.18178 14.5411 4.41411 14.8945 3.90343 14.5069C3.39274 14.1192 3.47725 13.2471 3.64626 11.503L3.68998 11.0517C3.73801 10.5561 3.76203 10.3083 3.69057 10.0785C3.61911 9.84873 3.46028 9.663 3.14261 9.29152L2.85339 8.95332C1.73549 7.64609 1.17654 6.99247 1.37161 6.36519C1.56667 5.73792 2.38657 5.55241 4.02635 5.18139L4.45059 5.08541C4.91656 4.97997 5.14955 4.92726 5.33662 4.78525C5.5237 4.64323 5.64368 4.428 5.88364 3.99753L6.1021 3.60562Z" fill="#0E74BC"/>
</g>
</svg>
