<svg width="32" height="32" viewBox="0 0 32 32" fill="none" xmlns="http://www.w3.org/2000/svg">
<path d="M31.9915 16.0016C31.9915 24.0831 26.0028 30.7643 18.2229 31.8485C17.4955 31.9494 16.7512 32.0021 15.9958 32.0021C15.1237 32.0021 14.2674 31.9326 13.4335 31.798C5.81725 30.5714 0 23.9654 0 16.0016C0 7.16439 7.16228 0 15.9969 0C24.8315 0 31.9938 7.16439 31.9938 16.0016H31.9915Z" fill="#1C1C1B"/>
<path d="M6.48688 7.05688L13.8644 16.9233L6.44092 24.9454H8.11212L14.612 17.9223L19.8632 24.9454H25.5493L17.7571 14.524L24.6672 7.05688H22.996L17.0106 13.525L12.1741 7.05688H6.48799H6.48688ZM8.94379 8.28795H11.5554L23.0902 23.7144H20.4785L8.94379 8.28795Z" fill="white"/>
</svg>
