<svg width="64" height="64" viewBox="0 0 64 64" fill="none" xmlns="http://www.w3.org/2000/svg">
<path d="M56.56 17.63H49.38C47.473 9.63 40.303 3.901 32 3.901C23.697 3.901 16.526 9.63 14.62 17.63H7.44C4.44 17.63 2 20.07 2 23.07V54.65C2 57.655 4.44 60.099 7.44 60.099H56.56C59.56 60.099 62 57.655 62 54.65V23.07C62 20.07 59.56 17.63 56.56 17.63ZM7.44 19.63H15.41C15.447 19.63 15.479 19.613 15.515 19.609C15.584 19.602 15.649 19.59 15.713 19.569C15.772 19.55 15.826 19.527 15.88 19.497C15.939 19.465 15.992 19.43 16.043 19.387C16.09 19.347 16.131 19.305 16.17 19.258C16.211 19.208 16.246 19.156 16.278 19.098C16.31 19.04 16.332 18.98 16.352 18.915C16.363 18.88 16.385 18.853 16.392 18.816C17.81 11.332 24.374 5.9 31.999 5.9C39.624 5.9 46.188 11.332 47.606 18.816C47.614 18.857 47.636 18.89 47.649 18.928C47.665 18.979 47.681 19.027 47.705 19.074C47.738 19.14 47.78 19.198 47.827 19.254C47.858 19.291 47.885 19.329 47.92 19.362C47.979 19.415 48.045 19.455 48.115 19.493C48.152 19.514 48.185 19.54 48.225 19.555C48.34 19.6 48.461 19.629 48.589 19.629H56.559C58.456 19.629 59.999 21.172 59.999 23.069V52.229H4V23.069C4 21.172 5.543 19.63 7.44 19.63ZM56.56 58.1H7.44C5.543 58.1 4 56.553 4 54.651V54.231H60V54.651C60 56.553 58.457 58.1 56.56 58.1Z" fill="#0E74BC"/>
<path d="M32.0216 23.98C33.0806 23.98 33.9416 23.119 33.9416 22.059C33.9416 21.365 33.5676 20.761 33.0016 20.423V17.319C33.0016 16.766 32.5536 16.319 32.0016 16.319C31.4496 16.319 31.0016 16.766 31.0016 17.319V20.442C30.4636 20.785 30.1016 21.382 30.1016 22.058C30.1016 23.118 30.9626 23.98 32.0216 23.98ZM32.0156 22.136C32.0246 22.136 32.0316 22.131 32.0396 22.131C32.0326 22.133 32.0306 22.138 32.0216 22.139C32.0196 22.139 32.0176 22.136 32.0156 22.136Z" fill="#0E74BC"/>
<path d="M18.4718 21.806C18.4758 25.509 19.9767 28.866 22.3977 31.309C22.4117 31.325 22.4167 31.346 22.4317 31.361C22.4467 31.376 22.4677 31.382 22.4837 31.396C24.9247 33.814 28.2768 35.313 31.9748 35.32C31.9838 35.32 31.9917 35.325 32.0007 35.325C32.0097 35.325 32.0178 35.32 32.0268 35.32C35.7238 35.313 39.0767 33.814 41.5177 31.396C41.5337 31.382 41.5548 31.377 41.5697 31.361C41.5847 31.346 41.5898 31.325 41.6038 31.309C44.0257 28.866 45.5257 25.509 45.5297 21.806C45.5297 21.801 45.5328 21.797 45.5328 21.792C45.5328 21.788 45.5307 21.784 45.5297 21.78C45.5267 18.071 44.0238 14.709 41.5958 12.264C41.5848 12.251 41.5807 12.235 41.5688 12.223C41.5568 12.211 41.5407 12.207 41.5287 12.196C39.0817 9.76501 35.7137 8.26001 32.0007 8.26001C28.2877 8.26001 24.9197 9.76501 22.4727 12.196C22.4607 12.207 22.4437 12.211 22.4327 12.223C22.4207 12.235 22.4168 12.251 22.4058 12.264C19.9788 14.709 18.4748 18.071 18.4718 21.78C18.4718 21.784 18.4688 21.788 18.4688 21.792C18.4688 21.797 18.4718 21.801 18.4718 21.806ZM22.5658 20.792H20.5217C20.7317 18.363 21.6927 16.148 23.1777 14.382L24.6217 15.827C24.8168 16.022 25.0727 16.12 25.3287 16.12C25.5847 16.12 25.8407 16.022 26.0357 15.827C26.4267 15.436 26.4267 14.804 26.0357 14.413L24.5907 12.968C26.3567 11.483 28.5708 10.52 30.9998 10.31V12.356C30.9998 12.909 31.4478 13.356 31.9998 13.356C32.5518 13.356 32.9998 12.909 32.9998 12.356V10.31C35.4287 10.52 37.6438 11.482 39.4088 12.968L37.9638 14.413C37.5728 14.804 37.5728 15.436 37.9638 15.827C38.1588 16.022 38.4147 16.12 38.6707 16.12C38.9267 16.12 39.1827 16.022 39.3777 15.827L40.8217 14.382C42.3067 16.148 43.2688 18.363 43.4778 20.792H41.4337C40.8817 20.792 40.4337 21.239 40.4337 21.792C40.4337 22.345 40.8817 22.792 41.4337 22.792H43.4778C43.2678 25.22 42.3048 27.434 40.8197 29.199L39.3767 27.756C38.9857 27.365 38.3538 27.365 37.9628 27.756C37.5718 28.147 37.5718 28.779 37.9628 29.17L39.4057 30.613C37.6407 32.098 35.4258 33.059 32.9978 33.269V31.227C32.9978 30.674 32.5497 30.227 31.9977 30.227C31.4457 30.227 30.9977 30.674 30.9977 31.227V33.269C28.5697 33.059 26.3558 32.097 24.5898 30.613L26.0327 29.17C26.4237 28.779 26.4237 28.147 26.0327 27.756C25.6417 27.365 25.0097 27.365 24.6187 27.756L23.1757 29.199C21.6907 27.434 20.7287 25.22 20.5177 22.792H22.5618C23.1138 22.792 23.5618 22.345 23.5618 21.792C23.5618 21.239 23.1138 20.792 22.5618 20.792H22.5658Z" fill="#0E74BC"/>
</svg>
