<svg width="64" height="64" viewBox="0 0 64 64" fill="none" xmlns="http://www.w3.org/2000/svg">
<path d="M28.076 26.4768C28.5375 26.4728 28.9926 26.3679 29.4093 26.1696C29.8261 25.9713 30.1945 25.6844 30.4888 25.3288C30.783 24.9732 30.9961 24.5577 31.1129 24.1112C31.2298 23.6647 31.2477 23.1981 31.1654 22.7439C31.0831 22.2898 30.9026 21.8592 30.6364 21.4821C30.3703 21.105 30.0249 20.7907 29.6246 20.561C29.2243 20.3313 28.7786 20.1919 28.3187 20.1525C27.8589 20.1131 27.396 20.1746 26.9624 20.3328C26.9076 20.3574 26.8464 20.3639 26.7877 20.3512C26.7289 20.3386 26.6758 20.3074 26.636 20.2624L23.7624 17.3248C23.546 17.1084 23.2525 16.9868 22.9464 16.9868C22.6404 16.9868 22.3468 17.1084 22.1304 17.3248C21.914 17.5412 21.7924 17.8348 21.7924 18.1408C21.7924 18.4469 21.914 18.7404 22.1304 18.9568L25.004 21.9008C25.0295 21.9095 25.0524 21.9244 25.0706 21.9443C25.0888 21.9641 25.1017 21.9883 25.1081 22.0144C25.1145 22.0406 25.1142 22.068 25.1071 22.094C25.1001 22.12 25.0867 22.1438 25.068 22.1632C24.8882 22.6478 24.8283 23.1686 24.8937 23.6813C24.959 24.194 25.1475 24.6833 25.4432 25.1072C25.7388 25.5311 26.1327 25.8772 26.5912 26.1157C27.0497 26.3542 27.5592 26.4781 28.076 26.4768ZM17.7592 50.9952H9.66322C9.37501 51.0168 9.1056 51.1465 8.90902 51.3584C8.71243 51.5703 8.60318 51.8486 8.60318 52.1376C8.60318 52.4266 8.71243 52.705 8.90902 52.9168C9.1056 53.1287 9.37501 53.2584 9.66322 53.28H17.7592C18.0474 53.2584 18.3168 53.1287 18.5134 52.9168C18.71 52.705 18.8193 52.4266 18.8193 52.1376C18.8193 51.8486 18.71 51.5703 18.5134 51.3584C18.3168 51.1465 18.0474 51.0168 17.7592 50.9952ZM22.8792 58.5088H13.708C13.4042 58.5088 13.1128 58.6295 12.898 58.8444C12.6831 59.0592 12.5624 59.3506 12.5624 59.6544C12.5624 59.9583 12.6831 60.2496 12.898 60.4645C13.1128 60.6793 13.4042 60.8 13.708 60.8H22.8536C23.1574 60.8 23.4488 60.6793 23.6637 60.4645C23.8785 60.2496 23.9992 59.9583 23.9992 59.6544C23.9992 59.3506 23.8785 59.0592 23.6637 58.8444C23.4488 58.6295 23.1574 58.5088 22.8536 58.5088H22.8792ZM59.6984 58.5088H56.3064C56.044 58.5088 55.9096 58.2528 56.044 58.1184C56.4105 57.5912 56.6482 56.9854 56.7383 56.3496C56.8283 55.7139 56.7681 55.0659 56.5624 54.4576L53.4072 42.88C53.0595 41.6175 52.3551 40.482 51.3784 39.6096L49.228 37.76C49.112 37.6613 48.9777 37.5863 48.8328 37.5395C48.6878 37.4926 48.5351 37.4748 48.3832 37.487C48.0766 37.5116 47.7923 37.657 47.5928 37.8912C47.3934 38.1255 47.2952 38.4293 47.3198 38.736C47.3444 39.0427 47.4898 39.327 47.724 39.5264L49.8808 41.3568C50.4951 41.8947 50.9399 42.5996 51.1608 43.3856L54.3992 55.04C54.4916 55.3276 54.5218 55.6315 54.4878 55.9315C54.4538 56.2316 54.3564 56.5211 54.2021 56.7807C54.0478 57.0403 53.8401 57.2642 53.5927 57.4374C53.3453 57.6107 53.0639 57.7293 52.7672 57.7856C52.4927 57.8798 52.201 57.9128 51.9125 57.8823C51.6239 57.8519 51.3455 57.7587 51.0967 57.6093C50.8479 57.4599 50.6349 57.258 50.4724 57.0176C50.3099 56.7772 50.2019 56.5041 50.156 56.2176L47.8584 48.1152C47.5818 47.0122 46.9581 46.0273 46.0792 45.3056L37.996 37.92C37.3501 37.3427 36.8853 36.5905 36.6582 35.7545C36.431 34.9184 36.4511 34.0345 36.716 33.2096L39.1992 23.5328C39.532 22.4526 40.2329 21.5232 41.18 20.9063C42.1272 20.2894 43.2606 20.0241 44.3832 20.1566C45.5057 20.289 46.5463 20.8107 47.3239 21.6311C48.1015 22.4514 48.567 23.5184 48.6392 24.6464C48.6392 24.8384 48.3768 24.9088 48.3128 24.7744L48.1848 24.512C48.0541 24.243 47.8219 24.0369 47.5392 23.9391C47.2566 23.8412 46.9467 23.8597 46.6776 23.9904C46.4086 24.1211 46.2025 24.3533 46.1047 24.636C46.0068 24.9186 46.0253 25.2286 46.156 25.4976L48.1848 29.6128C48.1848 29.6768 48.3128 29.7472 48.3768 29.7472H56.3192C59.1224 29.7472 59.1928 34.0608 56.3192 34.0608H47.9224C47.1884 34.0839 46.4637 33.892 45.8372 33.5089C45.2108 33.1257 44.7098 32.5679 44.396 31.904L43.3528 29.7472C43.215 29.4932 42.9848 29.302 42.7099 29.2129C42.435 29.1239 42.1364 29.1439 41.8758 29.2688C41.6152 29.3938 41.4127 29.6141 41.31 29.8842C41.2073 30.1543 41.2123 30.4535 41.324 30.72L42.3736 32.8768C42.8628 33.9301 43.6479 34.8184 44.6331 35.4332C45.6184 36.048 46.7613 36.3628 47.9224 36.3392H56.3192C62.1304 36.3392 62.1944 27.4496 56.3192 27.4496H50.86C50.8164 27.4524 50.7727 27.4459 50.7318 27.4305C50.691 27.4151 50.6538 27.3912 50.623 27.3603C50.5921 27.3294 50.5681 27.2923 50.5527 27.2514C50.5373 27.2105 50.5308 27.1668 50.5336 27.1232L50.6616 26.5984C50.9797 25.4926 51.0091 24.3237 50.7469 23.2033C50.4847 22.0828 49.9397 21.0483 49.164 20.1984C49.1331 20.1631 49.1115 20.1207 49.1012 20.075C49.0908 20.0292 49.0921 19.9816 49.1048 19.9365C49.1175 19.8914 49.1413 19.8501 49.174 19.8165C49.2067 19.7829 49.2472 19.758 49.292 19.744C50.0625 19.3705 50.7423 18.8334 51.2839 18.1702C51.8255 17.507 52.216 16.7336 52.428 15.904C54.5784 8.18562 42.828 4.98562 40.7416 12.7616C40.5113 13.5235 40.4441 14.3253 40.5444 15.1149C40.6448 15.9045 40.9104 16.664 41.324 17.344C41.3944 17.536 41.9128 17.984 41.4584 18.1888C40.0523 18.6653 38.8378 19.5835 37.996 20.8064C37.9054 21.0076 37.7722 21.1866 37.6056 21.3312L31.8456 26.9504C31.2648 27.5077 30.847 28.213 30.6374 28.9902C30.4279 29.7674 30.4344 30.587 30.6563 31.3608C30.8782 32.1346 31.3071 32.8331 31.8968 33.3811C32.4865 33.9291 33.2145 34.3057 34.0024 34.4704C34.1304 34.4704 34.2008 34.6048 34.2008 34.7328C34.2316 36.0699 34.6618 37.3671 35.436 38.4576C35.4699 38.5053 35.4881 38.5623 35.4881 38.6208C35.4881 38.6793 35.4699 38.7364 35.436 38.784L32.876 43.6224C32.8056 43.6864 32.8056 43.7568 32.7416 43.7568L24.6136 46.3488C23.4922 46.7207 22.563 47.5204 22.0284 48.5741C21.4938 49.6277 21.3971 50.8498 21.7592 51.9744C21.9286 52.5315 22.2078 53.0491 22.5802 53.4967C22.9527 53.9443 23.411 54.3128 23.928 54.5806C24.4451 54.8484 25.0105 55.01 25.591 55.0559C26.1715 55.1018 26.7553 55.0312 27.308 54.848C30.38 53.8688 33.58 52.928 36.6456 51.9744C38.0949 51.5161 39.3365 50.5622 40.1528 49.28C40.8696 48 41.6568 46.72 42.3736 45.44C42.4257 45.3717 42.5026 45.3267 42.5877 45.3147C42.6727 45.3027 42.7591 45.3247 42.828 45.376L44.5944 47.008C45.128 47.4761 45.5129 48.0902 45.7016 48.7744L47.9224 56.8192C48.0457 57.2643 48.2196 57.6938 48.4408 58.0992C48.5752 58.2336 48.4408 58.4896 48.2488 58.4896H30.3608C30.057 58.4896 29.7656 58.6103 29.5508 58.8252C29.3359 59.04 29.2152 59.3314 29.2152 59.6352C29.2152 59.9391 29.3359 60.2304 29.5508 60.4453C29.7656 60.6601 30.057 60.7808 30.3608 60.7808H59.6728C59.9766 60.7808 60.268 60.6601 60.4829 60.4453C60.6977 60.2304 60.8184 59.9391 60.8184 59.6352C60.8184 59.3314 60.6977 59.04 60.4829 58.8252C60.268 58.6103 59.9766 58.4896 59.6728 58.4896L59.6984 58.5088ZM42.8792 13.3312C44.1592 8.56322 51.564 10.3936 50.2584 15.296C49.9184 16.1805 49.2634 16.9081 48.4193 17.3388C47.5753 17.7695 46.6017 17.8729 45.6861 17.629C44.7703 17.3852 43.9771 16.8114 43.459 16.018C42.9408 15.2246 42.7343 14.2677 42.8792 13.3312ZM33.4264 28.5696L35.8392 26.2784C35.9032 26.1504 36.0952 26.2784 36.0952 26.4128L34.604 32C34.604 32.128 34.4056 32.1984 34.2776 32.1984C33.922 32.0868 33.6016 31.8846 33.3477 31.6117C33.0938 31.3389 32.9152 31.0047 32.8293 30.642C32.7435 30.2794 32.7534 29.9006 32.8581 29.5429C32.9628 29.1852 33.1586 28.8608 33.4264 28.6016V28.5696ZM38.1944 48.0512C37.6739 48.8991 36.8612 49.5273 35.9096 49.8176L26.572 52.6912C25.7912 53.088 23.8968 52.3008 23.8968 51.2576C23.7501 50.7028 23.8157 50.1131 24.0809 49.6041C24.346 49.0951 24.7916 48.7034 25.3304 48.5056L33.1 46.08C34.0152 45.7536 34.3416 45.6896 34.8664 44.8L37.0808 40.6848C37.1512 40.4864 37.3432 40.4864 37.4776 40.6144L40.6776 43.4304C40.7209 43.4845 40.7501 43.5485 40.7624 43.6167C40.7746 43.6849 40.7697 43.755 40.748 43.8208C39.8968 45.2608 39.0456 46.6304 38.188 48.0704L38.1944 48.0512ZM12.076 39.2256C9.98101 37.1443 8.31966 34.6681 7.18813 31.9404C6.05661 29.2126 5.47739 26.2875 5.48402 23.3344C5.49028 17.3414 7.85883 11.5925 12.076 7.33442C12.272 7.11389 12.3765 6.82687 12.3681 6.53194C12.3597 6.23701 12.2391 5.95639 12.0309 5.74735C11.8227 5.5383 11.5425 5.4166 11.2476 5.40706C10.9527 5.39752 10.6653 5.50087 10.444 5.69602C5.82619 10.409 3.2273 16.7363 3.19922 23.3344C3.20534 29.903 5.80979 36.2025 10.444 40.8576C10.6604 41.074 10.954 41.1956 11.26 41.1956C11.5661 41.1956 11.8596 41.074 12.076 40.8576C12.2924 40.6412 12.414 40.3477 12.414 40.0416C12.414 39.7356 12.2924 39.442 12.076 39.2256ZM7.96722 23.3344C8.01017 27.4877 9.3201 31.529 11.7218 34.9177C14.1236 38.3064 17.5027 40.8812 21.4072 42.2976C22.7768 42.8224 23.564 40.6656 22.124 40.1408C20.0888 39.4017 18.2076 38.293 16.5752 36.8704C16.5223 36.8219 16.4873 36.7571 16.4757 36.6863C16.4641 36.6155 16.4766 36.5429 16.5112 36.48L17.228 35.7568C17.4444 35.5404 17.566 35.2469 17.566 34.9408C17.566 34.6348 17.4444 34.3412 17.228 34.1248C17.0116 33.9084 16.7181 33.7868 16.412 33.7868C16.106 33.7868 15.8124 33.9084 15.596 34.1248L14.956 34.8416C14.828 34.976 14.6296 34.912 14.5016 34.8416C12.1352 31.9841 10.6993 28.4713 10.3864 24.7744C10.3792 24.6966 10.4025 24.619 10.4515 24.5581C10.5005 24.4971 10.5712 24.4577 10.6488 24.448H11.628C11.9162 24.4264 12.1856 24.2967 12.3822 24.0848C12.5788 23.873 12.6881 23.5946 12.6881 23.3056C12.6881 23.0166 12.5788 22.7383 12.3822 22.5264C12.1856 22.3145 11.9162 22.1848 11.628 22.1632H10.6424C10.5646 22.1705 10.487 22.1471 10.4261 22.0982C10.3651 22.0492 10.3257 21.9784 10.316 21.9008C10.6273 18.1708 12.0874 14.629 14.4952 11.7632C14.6232 11.6992 14.8216 11.6352 14.8856 11.7632L15.6024 12.4864C15.8242 12.6519 16.098 12.7325 16.3741 12.7136C16.6502 12.6948 16.9105 12.5776 17.1077 12.3835C17.305 12.1894 17.4262 11.931 17.4494 11.6552C17.4726 11.3794 17.3964 11.1044 17.2344 10.88L16.5176 10.1632C16.3896 10.0992 16.4536 9.90082 16.5176 9.77282C19.37 7.34932 22.9068 5.87509 26.636 5.55522C26.6748 5.5592 26.7123 5.57083 26.7466 5.58944C26.7808 5.60805 26.811 5.63326 26.8354 5.66362C26.8598 5.69398 26.8779 5.72888 26.8888 5.76631C26.8996 5.80373 26.9029 5.84292 26.8984 5.88162V6.92482C26.92 7.21303 27.0497 7.48244 27.2616 7.67902C27.4735 7.87561 27.7518 7.98486 28.0408 7.98486C28.3298 7.98486 28.6082 7.87561 28.82 7.67902C29.0319 7.48244 29.1616 7.21303 29.1832 6.92482V5.81762C29.1872 5.77887 29.1988 5.7413 29.2174 5.70708C29.236 5.67285 29.2613 5.64266 29.2916 5.61826C29.322 5.59385 29.3569 5.57571 29.3943 5.56489C29.4317 5.55407 29.4709 5.55078 29.5096 5.55522C31.3761 5.67086 33.2093 6.10373 34.9304 6.83522C35.0697 6.91496 35.2243 6.96404 35.3841 6.97915C35.5438 6.99427 35.7049 6.97509 35.8567 6.92289C36.0084 6.87068 36.1472 6.78667 36.2638 6.67647C36.3805 6.56626 36.4722 6.43241 36.5329 6.28388C36.5936 6.13535 36.6219 5.97556 36.6158 5.81522C36.6097 5.65488 36.5695 5.49769 36.4977 5.35416C36.426 5.21064 36.3244 5.08409 36.1998 4.98301C36.0752 4.88192 35.9305 4.80862 35.7752 4.76802C33.3489 3.70565 30.7245 3.17117 28.076 3.20002C17.196 3.20002 7.96722 12.4864 7.96722 23.3344ZM28.9208 23.3344C28.9176 23.5581 28.8277 23.7717 28.6702 23.9305C28.5126 24.0892 28.2996 24.1807 28.076 24.1856C27.9598 24.1908 27.8437 24.1727 27.7346 24.1326C27.6254 24.0924 27.5253 24.0309 27.4401 23.9517C27.355 23.8725 27.2864 23.7771 27.2384 23.6711C27.1905 23.5652 27.1641 23.4507 27.1608 23.3344C27.1555 23.2119 27.1754 23.0897 27.2193 22.9752C27.2632 22.8607 27.3301 22.7564 27.4159 22.6688C27.5017 22.5813 27.6045 22.5122 27.7181 22.466C27.8316 22.4197 27.9534 22.3973 28.076 22.4C28.3092 22.41 28.5289 22.5119 28.6872 22.6834C28.8455 22.8548 28.9295 23.082 28.9208 23.3152V23.3344Z" fill="#0E74BC"/>
</svg>
