<svg width="60" height="60" viewBox="0 0 60 60" fill="none" xmlns="http://www.w3.org/2000/svg">
<rect width="60" height="60" rx="30" fill="white"/>
<path d="M40.2319 38.7851C40.2319 39.2051 40.1386 39.6367 39.9403 40.0567C39.7419 40.4767 39.4853 40.8734 39.1469 41.2467C38.5753 41.8767 37.9453 42.3317 37.2336 42.6234C36.5336 42.9151 35.7753 43.0667 34.9586 43.0667C33.7686 43.0667 32.4969 42.7867 31.1553 42.2151C29.8136 41.6434 28.4719 40.8734 27.1419 39.9051C25.8003 38.9251 24.5286 37.8401 23.3153 36.6384C22.1136 35.4251 21.0286 34.1534 20.0603 32.8234C19.1036 31.4934 18.3336 30.1634 17.7736 28.8451C17.2136 27.5151 16.9336 26.2434 16.9336 25.0301C16.9336 24.2367 17.0736 23.4784 17.3536 22.7784C17.6336 22.0667 18.0769 21.4134 18.6953 20.8301C19.4419 20.0951 20.2586 19.7334 21.1219 19.7334C21.4486 19.7334 21.7753 19.8034 22.0669 19.9434C22.3703 20.0834 22.6386 20.2934 22.8486 20.5967L25.5553 24.4117C25.7653 24.7034 25.9169 24.9717 26.0219 25.2284C26.1269 25.4734 26.1853 25.7184 26.1853 25.9401C26.1853 26.2201 26.1036 26.5001 25.9403 26.7684C25.7886 27.0367 25.5669 27.3167 25.2869 27.5967L24.4003 28.5184C24.2719 28.6467 24.2136 28.7984 24.2136 28.9851C24.2136 29.0784 24.2253 29.1601 24.2486 29.2534C24.2836 29.3467 24.3186 29.4167 24.3419 29.4867C24.5519 29.8717 24.9136 30.3734 25.4269 30.9801C25.9519 31.5867 26.5119 32.2051 27.1186 32.8234C27.7486 33.4417 28.3553 34.0134 28.9736 34.5384C29.5803 35.0517 30.0819 35.4017 30.4786 35.6117C30.5369 35.6351 30.6069 35.6701 30.6886 35.7051C30.7819 35.7401 30.8753 35.7517 30.9803 35.7517C31.1786 35.7517 31.3303 35.6817 31.4586 35.5534L32.3453 34.6784C32.6369 34.3867 32.9169 34.1651 33.1853 34.0251C33.4536 33.8617 33.7219 33.7801 34.0136 33.7801C34.2353 33.7801 34.4686 33.8267 34.7253 33.9317C34.9819 34.0367 35.2503 34.1884 35.5419 34.3867L39.4036 37.1284C39.7069 37.3384 39.9169 37.5834 40.0453 37.8751C40.1619 38.1667 40.2319 38.4584 40.2319 38.7851Z" stroke="#0E74BC" stroke-width="1.5" stroke-miterlimit="10"/>
<path d="M36.1849 27.9002C36.1849 27.2002 35.6366 26.1269 34.8199 25.2519C34.0732 24.4469 33.0816 23.8169 32.1016 23.8169" stroke="#0E74BC" stroke-width="1.5" stroke-linecap="round" stroke-linejoin="round"/>
<path d="M40.2682 27.9001C40.2682 23.3851 36.6166 19.7334 32.1016 19.7334" stroke="#0E74BC" stroke-width="1.5" stroke-linecap="round" stroke-linejoin="round"/>
</svg>
