<svg width="64" height="64" viewBox="0 0 64 64" fill="none" xmlns="http://www.w3.org/2000/svg">
<g clip-path="url(#clip0_806_7237)">
<path d="M63.8262 57.5703C63.2291 55.3413 61.202 53.7844 58.8961 53.7844C58.451 53.7844 58.0057 53.8435 57.5726 53.9592C56.3869 54.2769 55.4104 54.9895 54.7462 55.9175L50.7905 54.0074C51.1887 52.8548 51.2594 51.5759 50.9207 50.312C50.4084 48.4004 49.0475 46.8883 47.3109 46.1375L49.4842 38.2449C49.7567 38.2767 50.0331 38.2942 50.3124 38.2942C50.9371 38.2942 51.5629 38.2117 52.1712 38.0485C54.0201 37.5532 55.5657 36.3669 56.5232 34.7084C57.4807 33.0502 57.7351 31.1183 57.2397 29.2694C56.4009 26.1405 53.5547 23.9554 50.3194 23.9554C49.6941 23.9554 49.0689 24.0379 48.4602 24.201C46.6116 24.6964 45.066 25.8827 44.1085 27.5409C43.2991 28.9424 42.9942 30.5392 43.2177 32.1164L40.7969 32.7557C40.0626 30.4985 38.8014 28.4307 37.0746 26.7043C34.1932 23.8219 30.361 22.235 26.2849 22.235C22.5021 22.235 18.9304 23.6023 16.1327 26.1024L14.3876 24.3572C16.9391 21.1864 16.7445 16.5224 13.8021 13.5804C13.7586 13.5368 13.7132 13.4959 13.6689 13.4534L20.3305 8.73115C21.2641 9.65728 22.5444 10.2157 23.9247 10.2157C24.3699 10.2157 24.8151 10.1565 25.2482 10.0409C26.1592 9.79678 26.946 9.3189 27.5632 8.6899L33.3675 12.8719C32.7846 14.0337 32.607 15.4042 32.9689 16.7552C33.6115 19.1543 35.7936 20.8294 38.2747 20.8294C38.7542 20.8294 39.234 20.7662 39.7 20.6414C41.1177 20.2613 42.303 19.3522 43.0369 18.0807C43.7712 16.8087 43.9659 15.328 43.5862 13.9103C43.5801 13.8875 43.5731 13.8655 43.5667 13.843L50.5257 10.866C51.7971 13.0478 54.1559 14.4607 56.7681 14.4607C57.3985 14.4607 58.0289 14.3772 58.6424 14.2132C62.492 13.1817 64.7852 9.21028 63.7537 5.3604C62.9082 2.2049 60.0386 0.00152588 56.7752 0.00152588C56.1454 0.00152588 55.5145 0.0850259 54.901 0.249026C51.0514 1.28053 48.7581 5.25165 49.7896 9.10178C49.8034 9.15315 49.8191 9.20353 49.834 9.2544L42.8279 12.2517C41.8259 10.7742 40.1369 9.83578 38.2797 9.83578C37.8007 9.83578 37.3212 9.89878 36.855 10.0238C35.8886 10.2828 35.0522 10.7867 34.3925 11.4492L28.5606 7.24715C29.0449 6.2004 29.1804 4.98528 28.8595 3.78665C28.2619 1.55815 26.2345 0.00152588 23.9291 0.00152588C23.4842 0.00152588 23.039 0.0606509 22.6056 0.176026C21.2885 0.529276 20.1871 1.37428 19.5052 2.5554C18.8229 3.73678 18.6415 5.11303 18.9947 6.4299C19.0761 6.73378 19.1849 7.02465 19.3166 7.30128L12.2085 12.3399C10.9739 11.6055 9.56023 11.213 8.08636 11.213C5.92723 11.213 3.89736 12.0539 2.37098 13.5804C-0.780894 16.7318 -0.780894 21.8594 2.37048 25.0108C3.89748 26.5375 5.92723 27.3783 8.08648 27.3783C9.95048 27.3783 11.7176 26.7504 13.1481 25.5967L14.8935 27.342C9.55348 33.3265 9.75348 42.5422 15.495 48.2835C17.208 49.997 19.257 51.2527 21.4936 51.9893L20.8279 54.4742C20.7051 54.4647 20.5821 54.4583 20.4591 54.4583C18.9699 54.4583 17.6051 55.1542 16.7204 56.272L11.8884 53.736C12.7594 52.2952 13.0676 50.517 12.5986 48.7662C11.8494 45.97 9.30661 44.0167 6.41398 44.0167C5.85536 44.0167 5.29698 44.0907 4.75336 44.2364C1.34098 45.1511 -0.691269 48.6705 0.222856 52.0822C0.972606 54.8783 3.51611 56.8317 6.40786 56.8317C6.96648 56.8317 7.52486 56.7576 8.06873 56.6119C9.10948 56.333 10.0209 55.8105 10.7604 55.1238L15.9044 57.8235C15.887 57.8799 15.8702 57.9366 15.8549 57.994C15.525 59.2243 15.6942 60.5099 16.3312 61.6132C16.9682 62.7164 17.9967 63.506 19.2275 63.8355C19.632 63.9436 20.0479 63.9987 20.4636 63.9987C22.6167 63.9987 24.5105 62.5448 25.0684 60.4625C25.3982 59.2323 25.229 57.9472 24.592 56.8439C24.1037 55.9983 23.385 55.338 22.5219 54.9268L23.1884 52.4397C24.1962 52.6462 25.2324 52.7529 26.2847 52.7529C30.3609 52.7529 34.1932 51.166 37.0745 48.2837C39.9566 45.4025 41.5435 41.5703 41.5435 37.4942C41.5435 36.4603 41.441 35.4423 41.2416 34.4514L43.6702 33.8102C44.4271 35.683 45.9354 37.1283 47.7796 37.8287L45.6202 45.672C45.3541 45.6377 45.0835 45.6195 44.8097 45.6195C44.2577 45.6195 43.706 45.6923 43.1689 45.836C41.5356 46.2738 40.1709 47.3209 39.3254 48.7855C38.4799 50.2497 38.2552 51.9559 38.693 53.5885C39.4335 56.3517 41.9461 58.2809 44.8041 58.2809C45.3561 58.2809 45.9079 58.2082 46.445 58.0644C47.9427 57.6627 49.1705 56.7524 49.9944 55.5697L53.9841 57.4963C53.7385 58.3552 53.7142 59.2889 53.9616 60.2128C54.5587 62.4418 56.5861 63.9987 58.892 63.9987C59.3369 63.9987 59.7821 63.9395 60.2155 63.8239C62.9351 63.0952 64.5545 60.2899 63.8262 57.5703ZM55.3542 1.94278C55.8201 1.81803 56.2979 1.75428 56.7749 1.75428C59.2465 1.75428 61.4194 3.42365 62.0595 5.81365C62.8405 8.73015 61.1044 11.738 58.1884 12.519C57.7227 12.644 57.2447 12.7073 56.7677 12.7073C54.2967 12.7073 52.1232 11.0383 51.4831 8.64815C50.7022 5.73165 52.4382 2.72403 55.3542 1.94278ZM37.3084 11.7174C37.6267 11.6317 37.9534 11.5885 38.2796 11.5885C39.9691 11.5885 41.4549 12.7302 41.8921 14.3637C42.1509 15.3295 42.0186 16.338 41.5186 17.2038C41.0186 18.0703 40.2115 18.6894 39.2464 18.9477C38.9272 19.0334 38.6006 19.0765 38.2745 19.0765C36.5852 19.0765 35.0997 17.9354 34.6625 16.3019C34.1285 14.3083 35.3152 12.2517 37.3084 11.7174ZM21.023 3.43178C21.471 2.65615 22.1941 2.10115 23.0589 1.87003C23.3442 1.79365 23.6367 1.75478 23.9287 1.75478C25.4417 1.75478 26.7727 2.77703 27.1654 4.24065C27.6439 6.02678 26.5801 7.86903 24.7947 8.34715C24.5094 8.42353 24.2161 8.46215 23.9246 8.46215C22.4112 8.46215 21.0801 7.4399 20.6882 5.97578C20.4564 5.11103 20.5752 4.2079 21.023 3.43178ZM7.61498 54.9182C7.21898 55.0247 6.81273 55.0783 6.40773 55.0783C4.30761 55.0783 2.46098 53.6595 1.91673 51.6288C1.25261 49.1505 2.72848 46.5944 5.20648 45.9303C5.60248 45.8238 6.00873 45.7704 6.41373 45.7704C8.51386 45.7704 10.3605 47.1887 10.9045 49.2199C11.5684 51.6979 10.0926 54.254 7.61498 54.9182ZM23.0732 57.7204C23.4764 58.4182 23.5832 59.2309 23.3742 60.009C23.0217 61.3259 21.8247 62.2459 20.4634 62.2459C20.2009 62.2459 19.9375 62.2108 19.6806 62.1419C18.9025 61.9334 18.2524 61.4347 17.8499 60.7369C17.4465 60.0389 17.3396 59.2259 17.5486 58.4478C17.9011 57.1309 19.0977 56.2117 20.459 56.2117C20.722 56.2117 20.9854 56.2468 21.2422 56.3157C22.0204 56.5238 22.6707 57.0229 23.0732 57.7204ZM26.2847 23.9887C29.8926 23.9887 33.2845 25.3929 35.835 27.9435C37.3387 29.4473 38.4436 31.2437 39.0977 33.2043L26.5484 36.5179L17.3742 27.344C19.8392 25.1744 22.9707 23.9887 26.2847 23.9887ZM3.61061 23.7714C1.14311 21.3037 1.14311 17.2878 3.61111 14.82C4.80623 13.6249 6.39548 12.9665 8.08648 12.9665C9.77711 12.9665 11.3672 13.625 12.5629 14.82C13.7577 16.0154 14.4156 17.6049 14.4156 19.2957C14.4156 20.9865 13.7576 22.5762 12.5629 23.7715C11.3674 24.9667 9.77723 25.625 8.08648 25.625C6.39548 25.6249 4.80623 24.9664 3.61061 23.7714ZM16.7341 47.0443C11.6767 41.9864 11.4777 33.8828 16.1351 28.5838L25.3071 37.7559L21.9485 50.2912C20.0061 49.6353 18.2261 48.5362 16.7341 47.0443ZM39.7901 37.494C39.7901 41.1019 38.3856 44.4938 35.835 47.0443C33.2844 49.5948 29.8926 50.9994 26.2847 50.9994C25.3875 50.9994 24.5039 50.9124 23.6431 50.7427L27.0006 38.2115L39.5422 34.9C39.7059 35.7459 39.7901 36.6134 39.7901 37.494ZM45.0857 32.5263C44.7112 31.1295 44.9034 29.6705 45.6265 28.4174C46.3501 27.1649 47.5176 26.2689 48.9139 25.8949C49.3746 25.7712 49.8475 25.7089 50.3194 25.7089C52.763 25.7089 54.9124 27.3595 55.546 29.723C55.9205 31.12 55.7284 32.5788 55.0052 33.8319C54.2816 35.0845 53.1141 35.9804 51.7179 36.3544C51.2571 36.4784 50.7842 36.5409 50.3124 36.5409C47.8682 36.5409 45.7192 34.8898 45.0857 32.5263ZM45.9912 56.3705C45.6021 56.475 45.2024 56.528 44.804 56.528C42.7386 56.528 40.9219 55.1328 40.3867 53.1352C40.0704 51.9543 40.2325 50.721 40.8437 49.6623C41.4549 48.6032 42.4414 47.8459 43.6224 47.5299C44.0115 47.4254 44.4112 47.3724 44.8096 47.3724C46.875 47.3724 48.6917 48.7677 49.2269 50.7655C49.8801 53.2028 48.4282 55.7172 45.9912 56.3705ZM59.7617 62.13C59.4764 62.2064 59.1834 62.2453 58.8919 62.2453C57.3785 62.2453 56.0471 61.2228 55.6552 59.7594C55.1767 57.9733 56.2405 56.131 58.0261 55.6529C58.3112 55.5765 58.6045 55.5377 58.896 55.5377C60.4094 55.5377 61.7405 56.5602 62.1324 58.0235C62.6109 59.8098 61.5474 61.652 59.7617 62.13Z" fill="#0E74BC"/>
</g>
<defs>
<clipPath id="clip0_806_7237">
<rect width="64" height="64" fill="white"/>
</clipPath>
</defs>
</svg>
