<svg width="64" height="64" viewBox="0 0 64 64" fill="none" xmlns="http://www.w3.org/2000/svg">
<path fill-rule="evenodd" clip-rule="evenodd" d="M21.2164 32.8224C24.9993 32.8224 28.0706 35.8936 28.0706 39.6766C28.0706 43.4596 24.9993 46.5309 21.2164 46.5309C17.4334 46.5309 14.3621 43.4596 14.3621 39.6766C14.3621 35.8936 17.4334 32.8224 21.2164 32.8224ZM21.2164 34.5724C18.3993 34.5724 16.1121 36.8595 16.1121 39.6766C16.1121 42.4937 18.3993 44.7809 21.2164 44.7809C24.0335 44.7809 26.3206 42.4937 26.3206 39.6766C26.3206 36.8595 24.0335 34.5724 21.2164 34.5724ZM12.7559 61.875V55.9451L2.08513 45.3978C0.815383 44.1427 0.803508 42.0959 2.05863 40.8261L2.13026 40.7536C3.38538 39.4839 5.43213 39.472 6.70188 40.727L13.2591 47.2085H28.9469L35.5041 40.727C36.7739 39.472 38.8208 39.4839 40.0758 40.7536L40.1475 40.8261C41.4026 42.0959 41.3906 44.1427 40.1209 45.3978L29.4503 55.9451V61.875C29.4503 62.3582 29.0585 62.75 28.5753 62.75H13.6309C13.1476 62.75 12.7559 62.3582 12.7559 61.875ZM14.5059 61H27.7003V55.5798C27.7003 55.3459 27.7939 55.1219 27.9601 54.9574L38.8908 44.1531C39.4731 43.5775 39.4785 42.6387 38.9029 42.0564L38.8311 41.9839C38.2555 41.4015 37.3168 41.396 36.7344 41.9716L29.9215 48.7059C29.7578 48.8678 29.5366 48.9585 29.3064 48.9585H12.8998C12.6694 48.9585 12.4484 48.8678 12.2846 48.7059L5.47163 41.9716C4.88926 41.396 3.95051 41.4015 3.37488 41.9839L3.30326 42.0564C2.72751 42.6387 2.73301 43.5775 3.31538 44.1531L14.246 54.9574C14.4123 55.1219 14.5059 55.3459 14.5059 55.5798V61ZM16.714 1H60.2038C61.6759 1 62.875 2.19913 62.875 3.67125V28.2564C62.875 29.7285 61.6759 30.9276 60.2038 30.9276H16.714C15.2419 30.9276 14.0428 29.7285 14.0428 28.2564V3.67125C14.0428 2.19913 15.2419 1 16.714 1ZM16.714 2.75C16.2063 2.75 15.7928 3.1635 15.7928 3.67125V28.2564C15.7928 28.7641 16.2063 29.1776 16.714 29.1776H60.2038C60.7115 29.1776 61.125 28.7641 61.125 28.2564V3.67125C61.125 3.1635 60.7115 2.75 60.2038 2.75H16.714ZM22.8144 4.63963H54.1034C54.5866 4.63963 54.9784 5.03137 54.9784 5.51463V6.132C54.9784 7.659 56.216 8.89662 57.743 8.89662H58.3604C58.8436 8.89662 59.2354 9.28837 59.2354 9.77162V22.156C59.2354 22.6392 58.8436 23.031 58.3604 23.031H57.743C56.216 23.031 54.9784 24.2686 54.9784 25.7956V26.4129C54.9784 26.8961 54.5866 27.2879 54.1034 27.2879H22.8144C22.3311 27.2879 21.9394 26.8961 21.9394 26.4129V25.7956C21.9394 24.2686 20.7018 23.031 19.1748 23.031H18.5574C18.0741 23.031 17.6824 22.6392 17.6824 22.156V9.77162C17.6824 9.28837 18.0741 8.89662 18.5574 8.89662H19.1748C20.7018 8.89662 21.9394 7.659 21.9394 6.132V5.51463C21.9394 5.03137 22.3311 4.63963 22.8144 4.63963ZM19.4324 10.6394V21.2882C21.7208 21.417 23.5534 23.2496 23.6821 25.5379H53.2356C53.3644 23.2496 55.197 21.417 57.4854 21.2882V10.6394C55.197 10.5106 53.3644 8.678 53.2356 6.38963H23.6821C23.5534 8.678 21.7208 10.5106 19.4324 10.6394ZM38.3985 23.8746C35.1316 23.6485 32.5738 22.6539 30.7629 20.8849C28.9505 19.1144 27.866 16.5518 27.6328 13.1077C27.6158 12.8556 27.7085 12.6085 27.8871 12.4299C28.0658 12.2513 28.3129 12.1585 28.5649 12.1756C31.077 12.3457 33.1201 12.9686 34.729 13.9967C35.1398 12.1326 36.1436 10.2471 37.7998 8.35038C37.9659 8.16013 38.2063 8.05087 38.4589 8.05087C38.7115 8.05087 38.9519 8.16013 39.118 8.35038C40.7741 10.2471 41.778 12.1326 42.1888 13.9967C43.7976 12.9686 45.8408 12.3457 48.3529 12.1756C48.6049 12.1585 48.852 12.2513 49.0306 12.4299C49.2093 12.6085 49.302 12.8556 49.285 13.1077C49.0518 16.5518 47.9673 19.1144 46.1549 20.8849C44.344 22.6539 41.7861 23.6485 38.5193 23.8746C38.479 23.8774 38.4388 23.8774 38.3985 23.8746ZM36.2971 15.26C36.3121 15.2751 36.3271 15.2904 36.3421 15.3057C37.2526 16.2378 37.9579 17.3676 38.4589 18.6901C38.9599 17.3676 39.6651 16.2378 40.5756 15.3057C40.5906 15.2904 40.6056 15.2751 40.6206 15.26C40.4615 13.6215 39.7428 11.9741 38.4589 10.3041C37.175 11.9741 36.4563 13.6215 36.2971 15.26ZM37.4828 22.0255C37.1791 19.7251 36.4069 17.8763 35.0903 16.5286C33.7656 15.1726 31.9025 14.3397 29.4804 14.0231C29.797 16.4454 30.6298 18.3085 31.9858 19.6331C33.3335 20.9496 35.1823 21.722 37.4828 22.0255ZM39.435 22.0255C41.7355 21.722 43.5843 20.9496 44.932 19.6331C46.288 18.3085 47.1208 16.4454 47.4374 14.0231C45.0153 14.3397 43.1521 15.1726 41.8275 16.5286C40.5109 17.8763 39.7386 19.7251 39.435 22.0255Z" fill="#0E74BC"/>
</svg>
